<svg width="1635px" height="188px"
 viewBox="0.00 0.00 1635.50 188.00" xmlns="http://www.w3.org/2000/svg" xmlns:xlink="http://www.w3.org/1999/xlink">
<g id="graph0" class="graph" transform="scale(1.0 1.0) rotate(0.0) translate(4.0 184.0)">
<polygon fill="white" stroke="transparent" points="-4,4 -4,-184 1631.5,-184 1631.5,4 -4,4"/>
<!-- photo -->
<g id="node1" class="node">
<title>photo</title>
<ellipse fill="none" stroke="black" cx="301.57" cy="-90" rx="33.07" ry="18"/>
<text text-anchor="middle" x="301.57" y="-85.8" font-family="Times,serif" font-size="14.00">photo</text>
</g>
<!-- image -->
<g id="node2" class="node">
<title>image</title>
<ellipse fill="none" stroke="black" cx="133.57" cy="-18" rx="34.77" ry="18"/>
<text text-anchor="middle" x="133.57" y="-13.8" font-family="Times,serif" font-size="14.00">image</text>
</g>
<!-- photo&#45;&gt;image -->
<g id="edge1" class="edge">
<title>photo&#45;&gt;image</title>
<path fill="none" stroke="black" d="M276.05,-78.37C247.6,-66.51 201.39,-47.26 169.34,-33.9"/>
<polygon fill="black" stroke="black" points="170.46,-30.58 159.88,-29.96 167.76,-37.04 170.46,-30.58"/>
</g>
<!-- video -->
<g id="node3" class="node">
<title>video</title>
<ellipse fill="none" stroke="black" cx="911.57" cy="-18" rx="32.48" ry="18"/>
<text text-anchor="middle" x="911.57" y="-13.8" font-family="Times,serif" font-size="14.00">video</text>
</g>
<!-- photo&#45;&gt;video -->
<g id="edge2" class="edge">
<title>photo&#45;&gt;video</title>
<path fill="none" stroke="black" d="M326.05,-77.7C331.7,-75.49 337.76,-73.41 343.57,-72 535.57,-25.26 773.31,-19.18 868.86,-18.78"/>
<polygon fill="black" stroke="black" points="869.01,-22.27 879,-18.75 868.99,-15.27 869.01,-22.27"/>
</g>
<!-- root -->
<g id="node4" class="node">
<title>root</title>
<ellipse fill="none" stroke="black" cx="914.57" cy="-162" rx="27" ry="18"/>
<text text-anchor="middle" x="914.57" y="-157.8" font-family="Times,serif" font-size="14.00">root</text>
</g>
<!-- root&#45;&gt;photo -->
<g id="edge12" class="edge">
<title>root&#45;&gt;photo</title>
<path fill="none" stroke="black" d="M887.35,-161.26C804.44,-161.48 548.17,-157.76 343.57,-108 340.94,-107.36 338.25,-106.58 335.58,-105.72"/>
<polygon fill="black" stroke="black" points="336.64,-102.38 326.05,-102.3 334.28,-108.97 336.64,-102.38"/>
</g>
<!-- root&#45;&gt;image -->
<g id="edge8" class="edge">
<title>root&#45;&gt;image</title>
<path fill="none" stroke="black" d="M887.46,-160.45C739.87,-157.34 38.55,-140.84 7.57,-108 -3.41,-96.36 -1.28,-85.33 7.57,-72 25.83,-44.5 61.45,-31.24 90.17,-24.86"/>
<polygon fill="black" stroke="black" points="90.89,-28.29 100,-22.88 89.51,-21.42 90.89,-28.29"/>
</g>
<!-- root&#45;&gt;video -->
<g id="edge18" class="edge">
<title>root&#45;&gt;video</title>
<path fill="none" stroke="black" d="M941.64,-160.65C1052.05,-158.97 1464.28,-149.9 1502.57,-108 1513.36,-96.19 1513.37,-83.81 1502.57,-72 1465.72,-31.7 1084.46,-21.8 954.61,-19.59"/>
<polygon fill="black" stroke="black" points="954.32,-16.08 944.27,-19.42 954.21,-23.08 954.32,-16.08"/>
</g>
<!-- calendar -->
<g id="node5" class="node">
<title>calendar</title>
<ellipse fill="none" stroke="black" cx="396.57" cy="-90" rx="43.98" ry="18"/>
<text text-anchor="middle" x="396.57" y="-85.8" font-family="Times,serif" font-size="14.00">calendar</text>
</g>
<!-- root&#45;&gt;calendar -->
<g id="edge3" class="edge">
<title>root&#45;&gt;calendar</title>
<path fill="none" stroke="black" d="M887.54,-159.78C815.56,-156.13 613.6,-143.29 449.57,-108 445.91,-107.21 442.14,-106.27 438.38,-105.25"/>
<polygon fill="black" stroke="black" points="439.11,-101.81 428.53,-102.37 437.14,-108.53 439.11,-101.81"/>
</g>
<!-- charts -->
<g id="node6" class="node">
<title>charts</title>
<ellipse fill="none" stroke="black" cx="492.57" cy="-90" rx="34.19" ry="18"/>
<text text-anchor="middle" x="492.57" y="-85.8" font-family="Times,serif" font-size="14.00">charts</text>
</g>
<!-- root&#45;&gt;charts -->
<g id="edge4" class="edge">
<title>root&#45;&gt;charts</title>
<path fill="none" stroke="black" d="M887.49,-159.43C824.7,-155.3 664.7,-142.04 535.57,-108 532.97,-107.31 530.31,-106.52 527.65,-105.65"/>
<polygon fill="black" stroke="black" points="528.75,-102.32 518.16,-102.26 526.4,-108.92 528.75,-102.32"/>
</g>
<!-- collapsing_toolbar -->
<g id="node7" class="node">
<title>collapsing_toolbar</title>
<ellipse fill="none" stroke="black" cx="627.57" cy="-90" rx="82.83" ry="18"/>
<text text-anchor="middle" x="627.57" y="-85.8" font-family="Times,serif" font-size="14.00">collapsing_toolbar</text>
</g>
<!-- root&#45;&gt;collapsing_toolbar -->
<g id="edge5" class="edge">
<title>root&#45;&gt;collapsing_toolbar</title>
<path fill="none" stroke="black" d="M889.6,-154.91C845.52,-144.16 752.68,-121.51 690.2,-106.28"/>
<polygon fill="black" stroke="black" points="690.99,-102.87 680.44,-103.9 689.33,-109.67 690.99,-102.87"/>
</g>
<!-- document -->
<g id="node8" class="node">
<title>document</title>
<ellipse fill="none" stroke="black" cx="777.57" cy="-90" rx="49.24" ry="18"/>
<text text-anchor="middle" x="777.57" y="-85.8" font-family="Times,serif" font-size="14.00">document</text>
</g>
<!-- root&#45;&gt;document -->
<g id="edge6" class="edge">
<title>root&#45;&gt;document</title>
<path fill="none" stroke="black" d="M893.76,-150.37C872.7,-139.6 839.68,-122.74 814.22,-109.73"/>
<polygon fill="black" stroke="black" points="815.71,-106.56 805.22,-105.13 812.53,-112.79 815.71,-106.56"/>
</g>
<!-- form -->
<g id="node9" class="node">
<title>form</title>
<ellipse fill="none" stroke="black" cx="874.57" cy="-90" rx="29.61" ry="18"/>
<text text-anchor="middle" x="874.57" y="-85.8" font-family="Times,serif" font-size="14.00">form</text>
</g>
<!-- root&#45;&gt;form -->
<g id="edge7" class="edge">
<title>root&#45;&gt;form</title>
<path fill="none" stroke="black" d="M905.29,-144.76C900.4,-136.19 894.28,-125.49 888.8,-115.9"/>
<polygon fill="black" stroke="black" points="891.8,-114.09 883.8,-107.15 885.72,-117.57 891.8,-114.09"/>
</g>
<!-- menu -->
<g id="node10" class="node">
<title>menu</title>
<ellipse fill="none" stroke="black" cx="954.57" cy="-90" rx="32.48" ry="18"/>
<text text-anchor="middle" x="954.57" y="-85.8" font-family="Times,serif" font-size="14.00">menu</text>
</g>
<!-- root&#45;&gt;menu -->
<g id="edge9" class="edge">
<title>root&#45;&gt;menu</title>
<path fill="none" stroke="black" d="M923.85,-144.76C928.62,-136.4 934.56,-126.02 939.94,-116.61"/>
<polygon fill="black" stroke="black" points="943.14,-118.05 945.06,-107.63 937.06,-114.58 943.14,-118.05"/>
</g>
<!-- navigation -->
<g id="node11" class="node">
<title>navigation</title>
<ellipse fill="none" stroke="black" cx="1056.57" cy="-90" rx="51.61" ry="18"/>
<text text-anchor="middle" x="1056.57" y="-85.8" font-family="Times,serif" font-size="14.00">navigation</text>
</g>
<!-- root&#45;&gt;navigation -->
<g id="edge10" class="edge">
<title>root&#45;&gt;navigation</title>
<path fill="none" stroke="black" d="M935.83,-150.52C957.77,-139.71 992.44,-122.61 1019.01,-109.51"/>
<polygon fill="black" stroke="black" points="1020.62,-112.62 1028.04,-105.06 1017.52,-106.35 1020.62,-112.62"/>
</g>
<!-- otp -->
<g id="node12" class="node">
<title>otp</title>
<ellipse fill="none" stroke="black" cx="1153.57" cy="-90" rx="27" ry="18"/>
<text text-anchor="middle" x="1153.57" y="-85.8" font-family="Times,serif" font-size="14.00">otp</text>
</g>
<!-- root&#45;&gt;otp -->
<g id="edge11" class="edge">
<title>root&#45;&gt;otp</title>
<path fill="none" stroke="black" d="M940.03,-155.95C978.94,-147.87 1055.26,-130.62 1117.57,-108 1119.42,-107.33 1121.31,-106.59 1123.2,-105.82"/>
<polygon fill="black" stroke="black" points="1124.77,-108.95 1132.53,-101.74 1121.96,-102.54 1124.77,-108.95"/>
</g>
<!-- pin_code -->
<g id="node13" class="node">
<title>pin_code</title>
<ellipse fill="none" stroke="black" cx="1244.57" cy="-90" rx="46.37" ry="18"/>
<text text-anchor="middle" x="1244.57" y="-85.8" font-family="Times,serif" font-size="14.00">pin_code</text>
</g>
<!-- root&#45;&gt;pin_code -->
<g id="edge13" class="edge">
<title>root&#45;&gt;pin_code</title>
<path fill="none" stroke="black" d="M940.56,-156.97C989.6,-149.14 1099.01,-130.65 1189.57,-108 1193.18,-107.1 1196.89,-106.1 1200.62,-105.05"/>
<polygon fill="black" stroke="black" points="1201.79,-108.36 1210.41,-102.19 1199.83,-101.64 1201.79,-108.36"/>
</g>
<!-- qr_code -->
<g id="node14" class="node">
<title>qr_code</title>
<ellipse fill="none" stroke="black" cx="1351.57" cy="-90" rx="42.28" ry="18"/>
<text text-anchor="middle" x="1351.57" y="-85.8" font-family="Times,serif" font-size="14.00">qr_code</text>
</g>
<!-- root&#45;&gt;qr_code -->
<g id="edge14" class="edge">
<title>root&#45;&gt;qr_code</title>
<path fill="none" stroke="black" d="M941.47,-158.97C1004.64,-153.83 1167.09,-138.52 1299.57,-108 1303.21,-107.16 1306.96,-106.18 1310.69,-105.12"/>
<polygon fill="black" stroke="black" points="1311.91,-108.41 1320.48,-102.17 1309.89,-101.7 1311.91,-108.41"/>
</g>
<!-- settings -->
<g id="node15" class="node">
<title>settings</title>
<ellipse fill="none" stroke="black" cx="1452.57" cy="-90" rx="40.58" ry="18"/>
<text text-anchor="middle" x="1452.57" y="-85.8" font-family="Times,serif" font-size="14.00">settings</text>
</g>
<!-- root&#45;&gt;settings -->
<g id="edge15" class="edge">
<title>root&#45;&gt;settings</title>
<path fill="none" stroke="black" d="M941.62,-160.14C1016.03,-157.34 1229.71,-146.28 1402.57,-108 1405.99,-107.24 1409.49,-106.33 1412.99,-105.34"/>
<polygon fill="black" stroke="black" points="1414.21,-108.62 1422.73,-102.34 1412.14,-101.93 1414.21,-108.62"/>
</g>
<!-- shared_element_transitions -->
<g id="node16" class="node">
<title>shared_element_transitions</title>
<ellipse fill="none" stroke="black" cx="133.57" cy="-90" rx="116.89" ry="18"/>
<text text-anchor="middle" x="133.57" y="-85.8" font-family="Times,serif" font-size="14.00">shared_element_transitions</text>
</g>
<!-- root&#45;&gt;shared_element_transitions -->
<g id="edge16" class="edge">
<title>root&#45;&gt;shared_element_transitions</title>
<path fill="none" stroke="black" d="M887.69,-159.34C798.3,-153.72 502.88,-134.24 259.57,-108 248.82,-106.84 237.56,-105.5 226.4,-104.1"/>
<polygon fill="black" stroke="black" points="226.54,-100.59 216.18,-102.79 225.66,-107.53 226.54,-100.59"/>
</g>
<!-- tutorial -->
<g id="node17" class="node">
<title>tutorial</title>
<ellipse fill="none" stroke="black" cx="1588.57" cy="-90" rx="38.86" ry="18"/>
<text text-anchor="middle" x="1588.57" y="-85.8" font-family="Times,serif" font-size="14.00">tutorial</text>
</g>
<!-- root&#45;&gt;tutorial -->
<g id="edge17" class="edge">
<title>root&#45;&gt;tutorial</title>
<path fill="none" stroke="black" d="M941.81,-160.85C1029.09,-159.92 1309.32,-153.34 1535.57,-108 1540.01,-107.11 1544.59,-105.98 1549.13,-104.72"/>
<polygon fill="black" stroke="black" points="1550.3,-108.02 1558.89,-101.82 1548.31,-101.31 1550.3,-108.02"/>
</g>
<!-- shared_element_transitions&#45;&gt;image -->
<g id="edge19" class="edge">
<title>shared_element_transitions&#45;&gt;image</title>
<path fill="none" stroke="black" d="M133.57,-71.7C133.57,-63.98 133.57,-54.71 133.57,-46.11"/>
<polygon fill="black" stroke="black" points="137.07,-46.1 133.57,-36.1 130.07,-46.1 137.07,-46.1"/>
</g>
</g>
</svg>
