<svg width="992px" height="116px"
 viewBox="0.00 0.00 992.23 116.00" xmlns="http://www.w3.org/2000/svg" xmlns:xlink="http://www.w3.org/1999/xlink">
<g id="graph0" class="graph" transform="scale(1.0 1.0) rotate(0.0) translate(4.0 112.0)">
<polygon fill="white" stroke="transparent" points="-4,4 -4,-112 988.23,-112 988.23,4 -4,4"/>
<!-- root -->
<g id="node1" class="node">
<title>root</title>
<ellipse fill="none" stroke="black" cx="529.74" cy="-90" rx="27" ry="18"/>
<text text-anchor="middle" x="529.74" y="-85.8" font-family="Times,serif" font-size="14.00">root</text>
</g>
<!-- calendar -->
<g id="node2" class="node">
<title>calendar</title>
<ellipse fill="none" stroke="black" cx="43.74" cy="-18" rx="43.98" ry="18"/>
<text text-anchor="middle" x="43.74" y="-13.8" font-family="Times,serif" font-size="14.00">calendar</text>
</g>
<!-- root&#45;&gt;calendar -->
<g id="edge1" class="edge">
<title>root&#45;&gt;calendar</title>
<path fill="none" stroke="black" d="M502.84,-87.48C434.37,-83.22 248.2,-69.25 96.74,-36 93.08,-35.2 89.31,-34.25 85.55,-33.21"/>
<polygon fill="black" stroke="black" points="86.29,-29.78 75.71,-30.32 84.32,-36.5 86.29,-29.78"/>
</g>
<!-- charts -->
<g id="node3" class="node">
<title>charts</title>
<ellipse fill="none" stroke="black" cx="139.74" cy="-18" rx="34.19" ry="18"/>
<text text-anchor="middle" x="139.74" y="-13.8" font-family="Times,serif" font-size="14.00">charts</text>
</g>
<!-- root&#45;&gt;charts -->
<g id="edge2" class="edge">
<title>root&#45;&gt;charts</title>
<path fill="none" stroke="black" d="M502.76,-86.96C443.82,-82.05 299.52,-67.57 182.74,-36 180.14,-35.3 177.48,-34.49 174.83,-33.61"/>
<polygon fill="black" stroke="black" points="175.94,-30.29 165.34,-30.21 173.57,-36.88 175.94,-30.29"/>
</g>
<!-- collapsing_toolbar -->
<g id="node4" class="node">
<title>collapsing_toolbar</title>
<ellipse fill="none" stroke="black" cx="274.74" cy="-18" rx="82.83" ry="18"/>
<text text-anchor="middle" x="274.74" y="-13.8" font-family="Times,serif" font-size="14.00">collapsing_toolbar</text>
</g>
<!-- root&#45;&gt;collapsing_toolbar -->
<g id="edge3" class="edge">
<title>root&#45;&gt;collapsing_toolbar</title>
<path fill="none" stroke="black" d="M505.29,-82.29C466.21,-71.56 388.55,-50.24 334.21,-35.33"/>
<polygon fill="black" stroke="black" points="334.92,-31.89 324.35,-32.62 333.07,-38.64 334.92,-31.89"/>
</g>
<!-- form -->
<g id="node5" class="node">
<title>form</title>
<ellipse fill="none" stroke="black" cx="405.74" cy="-18" rx="29.61" ry="18"/>
<text text-anchor="middle" x="405.74" y="-13.8" font-family="Times,serif" font-size="14.00">form</text>
</g>
<!-- root&#45;&gt;form -->
<g id="edge4" class="edge">
<title>root&#45;&gt;form</title>
<path fill="none" stroke="black" d="M509.82,-77.75C489.84,-66.48 458.83,-48.97 435.85,-36"/>
<polygon fill="black" stroke="black" points="437.29,-32.79 426.86,-30.92 433.84,-38.89 437.29,-32.79"/>
</g>
<!-- image -->
<g id="node6" class="node">
<title>image</title>
<ellipse fill="none" stroke="black" cx="487.74" cy="-18" rx="34.77" ry="18"/>
<text text-anchor="middle" x="487.74" y="-13.8" font-family="Times,serif" font-size="14.00">image</text>
</g>
<!-- root&#45;&gt;image -->
<g id="edge5" class="edge">
<title>root&#45;&gt;image</title>
<path fill="none" stroke="black" d="M520.21,-73.12C515.07,-64.56 508.62,-53.8 502.82,-44.13"/>
<polygon fill="black" stroke="black" points="505.67,-42.08 497.52,-35.31 499.67,-45.68 505.67,-42.08"/>
</g>
<!-- menu -->
<g id="node7" class="node">
<title>menu</title>
<ellipse fill="none" stroke="black" cx="572.74" cy="-18" rx="32.48" ry="18"/>
<text text-anchor="middle" x="572.74" y="-13.8" font-family="Times,serif" font-size="14.00">menu</text>
</g>
<!-- root&#45;&gt;menu -->
<g id="edge6" class="edge">
<title>root&#45;&gt;menu</title>
<path fill="none" stroke="black" d="M539.5,-73.12C544.81,-64.47 551.5,-53.58 557.48,-43.83"/>
<polygon fill="black" stroke="black" points="560.47,-45.66 562.72,-35.31 554.51,-42 560.47,-45.66"/>
</g>
<!-- navigation -->
<g id="node8" class="node">
<title>navigation</title>
<ellipse fill="none" stroke="black" cx="674.74" cy="-18" rx="51.61" ry="18"/>
<text text-anchor="middle" x="674.74" y="-13.8" font-family="Times,serif" font-size="14.00">navigation</text>
</g>
<!-- root&#45;&gt;navigation -->
<g id="edge7" class="edge">
<title>root&#45;&gt;navigation</title>
<path fill="none" stroke="black" d="M551.13,-78.67C573.54,-67.85 609.21,-50.64 636.48,-37.47"/>
<polygon fill="black" stroke="black" points="638.26,-40.5 645.74,-33 635.21,-34.2 638.26,-40.5"/>
</g>
<!-- otp -->
<g id="node9" class="node">
<title>otp</title>
<ellipse fill="none" stroke="black" cx="771.74" cy="-18" rx="27" ry="18"/>
<text text-anchor="middle" x="771.74" y="-13.8" font-family="Times,serif" font-size="14.00">otp</text>
</g>
<!-- root&#45;&gt;otp -->
<g id="edge8" class="edge">
<title>root&#45;&gt;otp</title>
<path fill="none" stroke="black" d="M555.25,-84.06C594.65,-76.08 672.35,-58.89 735.74,-36 737.59,-35.33 739.48,-34.6 741.37,-33.83"/>
<polygon fill="black" stroke="black" points="742.94,-36.96 750.7,-29.75 740.14,-30.55 742.94,-36.96"/>
</g>
<!-- qr_code -->
<g id="node10" class="node">
<title>qr_code</title>
<ellipse fill="none" stroke="black" cx="858.74" cy="-18" rx="42.28" ry="18"/>
<text text-anchor="middle" x="858.74" y="-13.8" font-family="Times,serif" font-size="14.00">qr_code</text>
</g>
<!-- root&#45;&gt;qr_code -->
<g id="edge9" class="edge">
<title>root&#45;&gt;qr_code</title>
<path fill="none" stroke="black" d="M556.06,-85.18C605.72,-77.71 716.46,-59.8 807.74,-36 810.94,-35.16 814.24,-34.23 817.54,-33.25"/>
<polygon fill="black" stroke="black" points="818.87,-36.5 827.38,-30.18 816.79,-29.82 818.87,-36.5"/>
</g>
<!-- video -->
<g id="node11" class="node">
<title>video</title>
<ellipse fill="none" stroke="black" cx="951.74" cy="-18" rx="32.48" ry="18"/>
<text text-anchor="middle" x="951.74" y="-13.8" font-family="Times,serif" font-size="14.00">video</text>
</g>
<!-- root&#45;&gt;video -->
<g id="edge10" class="edge">
<title>root&#45;&gt;video</title>
<path fill="none" stroke="black" d="M556.91,-87.51C619.91,-83.55 780.41,-70.63 909.74,-36 912.36,-35.3 915.03,-34.48 917.69,-33.59"/>
<polygon fill="black" stroke="black" points="919.02,-36.83 927.21,-30.1 916.62,-30.25 919.02,-36.83"/>
</g>
</g>
</svg>
