<svg width="528px" height="116px" viewBox="0.00 0.00 528.23 116.00"
    xmlns="http://www.w3.org/2000/svg">
<g id="graph0" class="graph" transform="scale(1.0 1.0) rotate(0.0) translate(4.0 112.0)">
    <polygon fill="white" stroke="transparent" points="-4,4 -4,-112 524.23,-112 524.23,4 -4,4" />
<!-- root -->
<g id="node1" class="node">
<title>root</title>
    <ellipse fill="none" stroke="black" cx="261.74" cy="-90" rx="27" ry="18" />
    <text text-anchor="middle" x="261.74" y="-85.8" font-family="Times,serif" font-size="14.00">
        root
    </text>
</g>
<!-- calendar -->
<g id="node2" class="node">
<title>calendar</title>
<ellipse fill="none" stroke="black" cx="43.74" cy="-18" rx="43.98" ry="18"/>
<text text-anchor="middle" x="43.74" y="-13.8" font-family="Times,serif" font-size="14.00">calendar</text>
</g>
<!-- root&#45;&gt;calendar -->
<g id="edge1" class="edge">
<title>root&#45;&gt;calendar</title>
    <path fill="none" stroke="black" d="M237.99,-81.38C201.7,-69.72 131.89,-47.3 86.59,-32.76" />
    <polygon fill="black" stroke="black"
        points="87.63,-29.42 77.03,-29.69 85.49,-36.08 87.63,-29.42" />
</g>
    <!-- charts -->
    <g id="node3" class="node">
        <title>charts</title>
        <ellipse fill="none" stroke="black" cx="139.74" cy="-18" rx="34.19" ry="18" />
        <text text-anchor="middle" x="139.74" y="-13.8" font-family="Times,serif" font-size="14.00">
            charts
        </text>
    </g>
    <!-- root&#45;&gt;charts -->
    <g id="edge2" class="edge">
        <title>root&#45;&gt;charts</title>
        <path fill="none" stroke="black"
            d="M241.87,-77.6C222.64,-66.57 193.21,-49.68 170.87,-36.86" />
        <polygon fill="black" stroke="black"
            points="172.5,-33.76 162.09,-31.82 169.02,-39.84 172.5,-33.76" />
</g>
<!-- form -->
    <g id="node4" class="node">
<title>form</title>
        <ellipse fill="none" stroke="black" cx="221.74" cy="-18" rx="29.61" ry="18" />
        <text text-anchor="middle" x="221.74" y="-13.8" font-family="Times,serif" font-size="14.00">
            form
        </text>
</g>
<!-- root&#45;&gt;form -->
    <g id="edge3" class="edge">
<title>root&#45;&gt;form</title>
        <path fill="none" stroke="black"
            d="M252.46,-72.76C247.56,-64.19 241.45,-53.49 235.97,-43.9" />
        <polygon fill="black" stroke="black"
            points="238.97,-42.09 230.97,-35.15 232.89,-45.57 238.97,-42.09" />
</g>
<!-- menu -->
    <g id="node5" class="node">
<title>menu</title>
        <ellipse fill="none" stroke="black" cx="301.74" cy="-18" rx="32.48" ry="18" />
        <text text-anchor="middle" x="301.74" y="-13.8" font-family="Times,serif" font-size="14.00">
            menu
        </text>
</g>
<!-- root&#45;&gt;menu -->
    <g id="edge4" class="edge">
<title>root&#45;&gt;menu</title>
        <path fill="none" stroke="black"
            d="M271.02,-72.76C275.79,-64.4 281.73,-54.02 287.11,-44.61" />
        <polygon fill="black" stroke="black"
            points="290.31,-46.05 292.23,-35.63 284.23,-42.58 290.31,-46.05" />
</g>
<!-- qr_code -->
    <g id="node6" class="node">
<title>qr_code</title>
        <ellipse fill="none" stroke="black" cx="394.74" cy="-18" rx="42.28" ry="18" />
        <text text-anchor="middle" x="394.74" y="-13.8" font-family="Times,serif" font-size="14.00">
            qr_code
        </text>
</g>
<!-- root&#45;&gt;qr_code -->
    <g id="edge5" class="edge">
<title>root&#45;&gt;qr_code</title>
        <path fill="none" stroke="black"
            d="M282.23,-78.22C302.9,-67.33 335.22,-50.33 359.92,-37.32" />
        <polygon fill="black" stroke="black"
            points="361.76,-40.31 368.98,-32.56 358.5,-34.12 361.76,-40.31" />
</g>
<!-- video -->
    <g id="node7" class="node">
<title>video</title>
        <ellipse fill="none" stroke="black" cx="487.74" cy="-18" rx="32.48" ry="18" />
        <text text-anchor="middle" x="487.74" y="-13.8" font-family="Times,serif" font-size="14.00">
            video
        </text>
</g>
<!-- root&#45;&gt;video -->
    <g id="edge6" class="edge">
<title>root&#45;&gt;video</title>
        <path fill="none" stroke="black"
            d="M286.7,-82.69C322.32,-73.5 389.65,-55.37 445.74,-36 448.15,-35.17 450.62,-34.28 453.09,-33.35" />
        <polygon fill="black" stroke="black"
            points="454.52,-36.55 462.58,-29.68 451.99,-30.02 454.52,-36.55" />
</g>
</g>
</svg>
