<svg width="2072px" height="188px"
 viewBox="0.00 0.00 2071.59 188.00" xmlns="http://www.w3.org/2000/svg" xmlns:xlink="http://www.w3.org/1999/xlink">
<g id="graph0" class="graph" transform="scale(1.0 1.0) rotate(0.0) translate(4.0 184.0)">
<polygon fill="white" stroke="transparent" points="-4,4 -4,-184 2067.59,-184 2067.59,4 -4,4"/>
<!-- photo -->
<g id="node1" class="node">
<title>photo</title>
<ellipse fill="none" stroke="black" cx="77.63" cy="-90" rx="33.07" ry="18"/>
<text text-anchor="middle" x="77.63" y="-85.8" font-family="Times,serif" font-size="14.00">photo</text>
</g>
<!-- image -->
<g id="node2" class="node">
<title>image</title>
<ellipse fill="none" stroke="black" cx="34.63" cy="-18" rx="34.77" ry="18"/>
<text text-anchor="middle" x="34.63" y="-13.8" font-family="Times,serif" font-size="14.00">image</text>
</g>
<!-- photo&#45;&gt;image -->
<g id="edge1" class="edge">
<title>photo&#45;&gt;image</title>
<path fill="none" stroke="black" d="M67.66,-72.76C62.47,-64.32 56.01,-53.8 50.18,-44.31"/>
<polygon fill="black" stroke="black" points="53.07,-42.32 44.85,-35.63 47.1,-45.99 53.07,-42.32"/>
</g>
<!-- video -->
<g id="node3" class="node">
<title>video</title>
<ellipse fill="none" stroke="black" cx="128.63" cy="-18" rx="32.48" ry="18"/>
<text text-anchor="middle" x="128.63" y="-13.8" font-family="Times,serif" font-size="14.00">video</text>
</g>
<!-- photo&#45;&gt;video -->
<g id="edge2" class="edge">
<title>photo&#45;&gt;video</title>
<path fill="none" stroke="black" d="M89.21,-73.12C95.57,-64.38 103.61,-53.35 110.76,-43.54"/>
<polygon fill="black" stroke="black" points="113.69,-45.45 116.75,-35.31 108.04,-41.33 113.69,-45.45"/>
</g>
<!-- root -->
<g id="node4" class="node">
<title>root</title>
<ellipse fill="none" stroke="black" cx="874.63" cy="-162" rx="27" ry="18"/>
<text text-anchor="middle" x="874.63" y="-157.8" font-family="Times,serif" font-size="14.00">root</text>
</g>
<!-- root&#45;&gt;photo -->
<g id="edge14" class="edge">
<title>root&#45;&gt;photo</title>
<path fill="none" stroke="black" d="M847.56,-160.09C730.45,-155.99 267.02,-138.17 124.63,-108 120.73,-107.17 116.72,-106.1 112.76,-104.89"/>
<polygon fill="black" stroke="black" points="113.71,-101.51 103.12,-101.66 111.49,-108.15 113.71,-101.51"/>
</g>
<!-- root&#45;&gt;image -->
<g id="edge9" class="edge">
<title>root&#45;&gt;image</title>
<path fill="none" stroke="black" d="M847.75,-160.32C707.4,-156.64 64.27,-138.17 35.63,-108 20.3,-91.85 21.91,-65.68 26.25,-45.89"/>
<polygon fill="black" stroke="black" points="29.71,-46.49 28.77,-35.93 22.93,-44.77 29.71,-46.49"/>
</g>
<!-- root&#45;&gt;video -->
<g id="edge21" class="edge">
<title>root&#45;&gt;video</title>
<path fill="none" stroke="black" d="M847.66,-160.76C723.75,-159.41 212.83,-151.26 157.63,-108 139.01,-93.4 132.19,-66.61 129.77,-46.23"/>
<polygon fill="black" stroke="black" points="133.26,-45.89 128.87,-36.25 126.28,-46.52 133.26,-45.89"/>
</g>
<!-- calendar -->
<g id="node5" class="node">
<title>calendar</title>
<ellipse fill="none" stroke="black" cx="210.63" cy="-90" rx="43.98" ry="18"/>
<text text-anchor="middle" x="210.63" y="-85.8" font-family="Times,serif" font-size="14.00">calendar</text>
</g>
<!-- root&#45;&gt;calendar -->
<g id="edge3" class="edge">
<title>root&#45;&gt;calendar</title>
<path fill="none" stroke="black" d="M847.53,-160.8C761.31,-159.71 485.97,-152.71 263.63,-108 259.96,-107.26 256.18,-106.36 252.42,-105.35"/>
<polygon fill="black" stroke="black" points="253.14,-101.92 242.56,-102.51 251.2,-108.64 253.14,-101.92"/>
</g>
<!-- charts -->
<g id="node6" class="node">
<title>charts</title>
<ellipse fill="none" stroke="black" cx="306.63" cy="-90" rx="34.19" ry="18"/>
<text text-anchor="middle" x="306.63" y="-85.8" font-family="Times,serif" font-size="14.00">charts</text>
</g>
<!-- root&#45;&gt;charts -->
<g id="edge4" class="edge">
<title>root&#45;&gt;charts</title>
<path fill="none" stroke="black" d="M847.42,-160.88C768.98,-159.97 536.12,-153.35 349.63,-108 346.86,-107.32 344.02,-106.51 341.19,-105.6"/>
<polygon fill="black" stroke="black" points="342.32,-102.29 331.72,-102.26 339.99,-108.89 342.32,-102.29"/>
</g>
<!-- chat -->
<g id="node7" class="node">
<title>chat</title>
<ellipse fill="none" stroke="black" cx="385.63" cy="-90" rx="27.24" ry="18"/>
<text text-anchor="middle" x="385.63" y="-85.8" font-family="Times,serif" font-size="14.00">chat</text>
</g>
<!-- root&#45;&gt;chat -->
<g id="edge5" class="edge">
<title>root&#45;&gt;chat</title>
<path fill="none" stroke="black" d="M847.49,-160.86C776.22,-159.86 578.45,-152.89 421.63,-108 419.69,-107.44 417.72,-106.79 415.76,-106.08"/>
<polygon fill="black" stroke="black" points="416.7,-102.68 406.13,-102.08 414.02,-109.14 416.7,-102.68"/>
</g>
<!-- collapsing_toolbar -->
<g id="node8" class="node">
<title>collapsing_toolbar</title>
<ellipse fill="none" stroke="black" cx="513.63" cy="-90" rx="82.83" ry="18"/>
<text text-anchor="middle" x="513.63" y="-85.8" font-family="Times,serif" font-size="14.00">collapsing_toolbar</text>
</g>
<!-- root&#45;&gt;collapsing_toolbar -->
<g id="edge6" class="edge">
<title>root&#45;&gt;collapsing_toolbar</title>
<path fill="none" stroke="black" d="M848.96,-156.02C794.28,-145.42 664.69,-120.29 583.57,-104.56"/>
<polygon fill="black" stroke="black" points="583.92,-101.06 573.43,-102.6 582.59,-107.94 583.92,-101.06"/>
</g>
<!-- document -->
<g id="node9" class="node">
<title>document</title>
<ellipse fill="none" stroke="black" cx="663.63" cy="-90" rx="49.24" ry="18"/>
<text text-anchor="middle" x="663.63" y="-85.8" font-family="Times,serif" font-size="14.00">document</text>
</g>
<!-- root&#45;&gt;document -->
<g id="edge7" class="edge">
<title>root&#45;&gt;document</title>
<path fill="none" stroke="black" d="M850.84,-153.11C816.37,-141.67 751.92,-120.29 708.39,-105.85"/>
<polygon fill="black" stroke="black" points="709.49,-102.53 698.9,-102.7 707.29,-109.17 709.49,-102.53"/>
</g>
<!-- form -->
<g id="node10" class="node">
<title>form</title>
<ellipse fill="none" stroke="black" cx="760.63" cy="-90" rx="29.61" ry="18"/>
<text text-anchor="middle" x="760.63" y="-85.8" font-family="Times,serif" font-size="14.00">form</text>
</g>
<!-- root&#45;&gt;form -->
<g id="edge8" class="edge">
<title>root&#45;&gt;form</title>
<path fill="none" stroke="black" d="M855.3,-149.13C837.26,-138.05 810.11,-121.38 789.5,-108.73"/>
<polygon fill="black" stroke="black" points="791.19,-105.66 780.84,-103.4 787.53,-111.62 791.19,-105.66"/>
</g>
<!-- map -->
<g id="node11" class="node">
<title>map</title>
<ellipse fill="none" stroke="black" cx="835.63" cy="-90" rx="27.83" ry="18"/>
<text text-anchor="middle" x="835.63" y="-85.8" font-family="Times,serif" font-size="14.00">map</text>
</g>
<!-- root&#45;&gt;map -->
<g id="edge10" class="edge">
<title>root&#45;&gt;map</title>
<path fill="none" stroke="black" d="M865.59,-144.76C860.81,-136.19 854.85,-125.49 849.51,-115.9"/>
<polygon fill="black" stroke="black" points="852.56,-114.18 844.63,-107.15 846.44,-117.59 852.56,-114.18"/>
</g>
<!-- menu -->
<g id="node12" class="node">
<title>menu</title>
<ellipse fill="none" stroke="black" cx="913.63" cy="-90" rx="32.48" ry="18"/>
<text text-anchor="middle" x="913.63" y="-85.8" font-family="Times,serif" font-size="14.00">menu</text>
</g>
<!-- root&#45;&gt;menu -->
<g id="edge11" class="edge">
<title>root&#45;&gt;menu</title>
<path fill="none" stroke="black" d="M883.68,-144.76C888.34,-136.4 894.13,-126.02 899.37,-116.61"/>
<polygon fill="black" stroke="black" points="902.56,-118.07 904.37,-107.63 896.44,-114.67 902.56,-118.07"/>
</g>
<!-- navigation -->
<g id="node13" class="node">
<title>navigation</title>
<ellipse fill="none" stroke="black" cx="1015.63" cy="-90" rx="51.61" ry="18"/>
<text text-anchor="middle" x="1015.63" y="-85.8" font-family="Times,serif" font-size="14.00">navigation</text>
</g>
<!-- root&#45;&gt;navigation -->
<g id="edge12" class="edge">
<title>root&#45;&gt;navigation</title>
<path fill="none" stroke="black" d="M895.74,-150.52C917.46,-139.74 951.74,-122.72 978.09,-109.64"/>
<polygon fill="black" stroke="black" points="979.65,-112.77 987.05,-105.19 976.54,-106.5 979.65,-112.77"/>
</g>
<!-- otp -->
<g id="node14" class="node">
<title>otp</title>
<ellipse fill="none" stroke="black" cx="1112.63" cy="-90" rx="27" ry="18"/>
<text text-anchor="middle" x="1112.63" y="-85.8" font-family="Times,serif" font-size="14.00">otp</text>
</g>
<!-- root&#45;&gt;otp -->
<g id="edge13" class="edge">
<title>root&#45;&gt;otp</title>
<path fill="none" stroke="black" d="M900.29,-155.86C939.1,-147.73 1014.79,-130.5 1076.63,-108 1078.49,-107.33 1080.37,-106.59 1082.26,-105.82"/>
<polygon fill="black" stroke="black" points="1083.84,-108.95 1091.59,-101.73 1081.03,-102.54 1083.84,-108.95"/>
</g>
<!-- pin_code -->
<g id="node15" class="node">
<title>pin_code</title>
<ellipse fill="none" stroke="black" cx="1203.63" cy="-90" rx="46.37" ry="18"/>
<text text-anchor="middle" x="1203.63" y="-85.8" font-family="Times,serif" font-size="14.00">pin_code</text>
</g>
<!-- root&#45;&gt;pin_code -->
<g id="edge15" class="edge">
<title>root&#45;&gt;pin_code</title>
<path fill="none" stroke="black" d="M900.91,-156.9C949.96,-149.02 1058.63,-130.54 1148.63,-108 1152.19,-107.11 1155.85,-106.13 1159.52,-105.09"/>
<polygon fill="black" stroke="black" points="1160.55,-108.44 1169.18,-102.28 1158.6,-101.72 1160.55,-108.44"/>
</g>
<!-- qr_code -->
<g id="node16" class="node">
<title>qr_code</title>
<ellipse fill="none" stroke="black" cx="1310.63" cy="-90" rx="42.28" ry="18"/>
<text text-anchor="middle" x="1310.63" y="-85.8" font-family="Times,serif" font-size="14.00">qr_code</text>
</g>
<!-- root&#45;&gt;qr_code -->
<g id="edge16" class="edge">
<title>root&#45;&gt;qr_code</title>
<path fill="none" stroke="black" d="M901.47,-158.96C964.47,-153.81 1126.49,-138.46 1258.63,-108 1262.27,-107.16 1266.02,-106.18 1269.76,-105.12"/>
<polygon fill="black" stroke="black" points="1270.98,-108.4 1279.54,-102.17 1268.96,-101.7 1270.98,-108.4"/>
</g>
<!-- settings -->
<g id="node17" class="node">
<title>settings</title>
<ellipse fill="none" stroke="black" cx="1411.63" cy="-90" rx="40.58" ry="18"/>
<text text-anchor="middle" x="1411.63" y="-85.8" font-family="Times,serif" font-size="14.00">settings</text>
</g>
<!-- root&#45;&gt;settings -->
<g id="edge17" class="edge">
<title>root&#45;&gt;settings</title>
<path fill="none" stroke="black" d="M901.63,-160.14C975.89,-157.31 1189.13,-146.23 1361.63,-108 1365.05,-107.24 1368.56,-106.33 1372.06,-105.34"/>
<polygon fill="black" stroke="black" points="1373.27,-108.62 1381.8,-102.33 1371.21,-101.93 1373.27,-108.62"/>
</g>
<!-- shared_element_transitions -->
<g id="node18" class="node">
<title>shared_element_transitions</title>
<ellipse fill="none" stroke="black" cx="1586.63" cy="-90" rx="116.89" ry="18"/>
<text text-anchor="middle" x="1586.63" y="-85.8" font-family="Times,serif" font-size="14.00">shared_element_transitions</text>
</g>
<!-- root&#45;&gt;shared_element_transitions -->
<g id="edge18" class="edge">
<title>root&#45;&gt;shared_element_transitions</title>
<path fill="none" stroke="black" d="M901.3,-159.02C984.36,-152.77 1245.83,-132.4 1461.63,-108 1472.13,-106.81 1483.11,-105.47 1494.02,-104.07"/>
<polygon fill="black" stroke="black" points="1494.53,-107.53 1504,-102.77 1493.63,-100.59 1494.53,-107.53"/>
</g>
<!-- tutorial -->
<g id="node19" class="node">
<title>tutorial</title>
<ellipse fill="none" stroke="black" cx="1760.63" cy="-90" rx="38.86" ry="18"/>
<text text-anchor="middle" x="1760.63" y="-85.8" font-family="Times,serif" font-size="14.00">tutorial</text>
</g>
<!-- root&#45;&gt;tutorial -->
<g id="edge19" class="edge">
<title>root&#45;&gt;tutorial</title>
<path fill="none" stroke="black" d="M901.87,-160.29C1027.55,-156.87 1552.14,-140.83 1712.63,-108 1715.88,-107.34 1719.21,-106.5 1722.52,-105.56"/>
<polygon fill="black" stroke="black" points="1723.83,-108.82 1732.32,-102.48 1721.73,-102.14 1723.83,-108.82"/>
</g>
<!-- uploader -->
<g id="node20" class="node">
<title>uploader</title>
<ellipse fill="none" stroke="black" cx="1862.63" cy="-90" rx="44.65" ry="18"/>
<text text-anchor="middle" x="1862.63" y="-85.8" font-family="Times,serif" font-size="14.00">uploader</text>
</g>
<!-- root&#45;&gt;uploader -->
<g id="edge20" class="edge">
<title>root&#45;&gt;uploader</title>
<path fill="none" stroke="black" d="M901.78,-160.37C1035.79,-157.11 1627.7,-141.08 1808.63,-108 1812.55,-107.28 1816.57,-106.37 1820.58,-105.34"/>
<polygon fill="black" stroke="black" points="1821.73,-108.65 1830.41,-102.58 1819.84,-101.91 1821.73,-108.65"/>
</g>
<!-- work_manager -->
<g id="node21" class="node">
<title>work_manager</title>
<ellipse fill="none" stroke="black" cx="1994.63" cy="-90" rx="68.9" ry="18"/>
<text text-anchor="middle" x="1994.63" y="-85.8" font-family="Times,serif" font-size="14.00">work_manager</text>
</g>
<!-- root&#45;&gt;work_manager -->
<g id="edge22" class="edge">
<title>root&#45;&gt;work_manager</title>
<path fill="none" stroke="black" d="M901.75,-161.25C1021.63,-162 1515.8,-161.51 1916.63,-108 1922.94,-107.16 1929.5,-106.07 1936.01,-104.85"/>
<polygon fill="black" stroke="black" points="1937.04,-108.22 1946.17,-102.85 1935.68,-101.35 1937.04,-108.22"/>
</g>
</g>
</svg>
