<svg width="1290px" height="188px"
 viewBox="0.00 0.00 1290.23 188.00" xmlns="http://www.w3.org/2000/svg" xmlns:xlink="http://www.w3.org/1999/xlink">
<g id="graph0" class="graph" transform="scale(1.0 1.0) rotate(0.0) translate(4.0 184.0)">
<polygon fill="white" stroke="transparent" points="-4,4 -4,-184 1286.23,-184 1286.23,4 -4,4"/>
<!-- root -->
<g id="node1" class="node">
<title>root</title>
<ellipse fill="none" stroke="black" cx="574.74" cy="-162" rx="27" ry="18"/>
<text text-anchor="middle" x="574.74" y="-157.8" font-family="Times,serif" font-size="14.00">root</text>
</g>
<!-- calendar -->
<g id="node2" class="node">
<title>calendar</title>
<ellipse fill="none" stroke="black" cx="43.74" cy="-90" rx="43.98" ry="18"/>
<text text-anchor="middle" x="43.74" y="-85.8" font-family="Times,serif" font-size="14.00">calendar</text>
</g>
<!-- root&#45;&gt;calendar -->
<g id="edge1" class="edge">
<title>root&#45;&gt;calendar</title>
<path fill="none" stroke="black" d="M547.75,-159.9C474.47,-156.5 265.97,-144.14 96.74,-108 93.07,-107.22 89.3,-106.28 85.54,-105.26"/>
<polygon fill="black" stroke="black" points="86.27,-101.82 75.69,-102.38 84.31,-108.54 86.27,-101.82"/>
</g>
<!-- charts -->
<g id="node3" class="node">
<title>charts</title>
<ellipse fill="none" stroke="black" cx="139.74" cy="-90" rx="34.19" ry="18"/>
<text text-anchor="middle" x="139.74" y="-85.8" font-family="Times,serif" font-size="14.00">charts</text>
</g>
<!-- root&#45;&gt;charts -->
<g id="edge2" class="edge">
<title>root&#45;&gt;charts</title>
<path fill="none" stroke="black" d="M547.69,-159.6C483.43,-155.79 316.96,-143.05 182.74,-108 180.13,-107.32 177.47,-106.53 174.82,-105.66"/>
<polygon fill="black" stroke="black" points="175.92,-102.34 165.32,-102.28 173.57,-108.93 175.92,-102.34"/>
</g>
<!-- collapsing_toolbar -->
<g id="node4" class="node">
<title>collapsing_toolbar</title>
<ellipse fill="none" stroke="black" cx="274.74" cy="-90" rx="82.83" ry="18"/>
<text text-anchor="middle" x="274.74" y="-85.8" font-family="Times,serif" font-size="14.00">collapsing_toolbar</text>
</g>
<!-- root&#45;&gt;collapsing_toolbar -->
<g id="edge3" class="edge">
<title>root&#45;&gt;collapsing_toolbar</title>
<path fill="none" stroke="black" d="M549.68,-155.15C503.73,-144.43 404.71,-121.33 338.9,-105.97"/>
<polygon fill="black" stroke="black" points="339.57,-102.53 329.04,-103.67 337.98,-109.35 339.57,-102.53"/>
</g>
<!-- form -->
<g id="node5" class="node">
<title>form</title>
<ellipse fill="none" stroke="black" cx="405.74" cy="-90" rx="29.61" ry="18"/>
<text text-anchor="middle" x="405.74" y="-85.8" font-family="Times,serif" font-size="14.00">form</text>
</g>
<!-- root&#45;&gt;form -->
<g id="edge4" class="edge">
<title>root&#45;&gt;form</title>
<path fill="none" stroke="black" d="M552.3,-151.7C523.29,-139.69 472.52,-118.66 439.02,-104.78"/>
<polygon fill="black" stroke="black" points="440.22,-101.49 429.64,-100.9 437.54,-107.96 440.22,-101.49"/>
</g>
<!-- image -->
<g id="node6" class="node">
<title>image</title>
<ellipse fill="none" stroke="black" cx="724.74" cy="-18" rx="34.77" ry="18"/>
<text text-anchor="middle" x="724.74" y="-13.8" font-family="Times,serif" font-size="14.00">image</text>
</g>
<!-- root&#45;&gt;image -->
<g id="edge5" class="edge">
<title>root&#45;&gt;image</title>
<path fill="none" stroke="black" d="M550.18,-154.45C528.14,-147.13 497.13,-132.9 482.74,-108 474.73,-94.15 472.71,-84.47 482.74,-72 507.07,-41.77 617.34,-27.82 680.31,-22.22"/>
<polygon fill="black" stroke="black" points="680.7,-25.7 690.36,-21.37 680.1,-18.73 680.7,-25.7"/>
</g>
<!-- menu -->
<g id="node7" class="node">
<title>menu</title>
<ellipse fill="none" stroke="black" cx="523.74" cy="-90" rx="32.48" ry="18"/>
<text text-anchor="middle" x="523.74" y="-85.8" font-family="Times,serif" font-size="14.00">menu</text>
</g>
<!-- root&#45;&gt;menu -->
<g id="edge6" class="edge">
<title>root&#45;&gt;menu</title>
<path fill="none" stroke="black" d="M563.42,-145.46C556.97,-136.62 548.76,-125.34 541.47,-115.34"/>
<polygon fill="black" stroke="black" points="544.1,-113 535.38,-106.98 538.44,-117.12 544.1,-113"/>
</g>
<!-- navigation -->
<g id="node8" class="node">
<title>navigation</title>
<ellipse fill="none" stroke="black" cx="625.74" cy="-90" rx="51.61" ry="18"/>
<text text-anchor="middle" x="625.74" y="-85.8" font-family="Times,serif" font-size="14.00">navigation</text>
</g>
<!-- root&#45;&gt;navigation -->
<g id="edge7" class="edge">
<title>root&#45;&gt;navigation</title>
<path fill="none" stroke="black" d="M586.06,-145.46C592.32,-136.87 600.26,-125.97 607.39,-116.19"/>
<polygon fill="black" stroke="black" points="610.32,-118.11 613.38,-107.96 604.66,-113.98 610.32,-118.11"/>
</g>
<!-- otp -->
<g id="node9" class="node">
<title>otp</title>
<ellipse fill="none" stroke="black" cx="722.74" cy="-90" rx="27" ry="18"/>
<text text-anchor="middle" x="722.74" y="-85.8" font-family="Times,serif" font-size="14.00">otp</text>
</g>
<!-- root&#45;&gt;otp -->
<g id="edge8" class="edge">
<title>root&#45;&gt;otp</title>
<path fill="none" stroke="black" d="M596.26,-150.82C621.47,-138.9 663.42,-119.06 692.04,-105.52"/>
<polygon fill="black" stroke="black" points="693.65,-108.63 701.19,-101.19 690.66,-102.3 693.65,-108.63"/>
</g>
<!-- qr_code -->
<g id="node10" class="node">
<title>qr_code</title>
<ellipse fill="none" stroke="black" cx="809.74" cy="-90" rx="42.28" ry="18"/>
<text text-anchor="middle" x="809.74" y="-85.8" font-family="Times,serif" font-size="14.00">qr_code</text>
</g>
<!-- root&#45;&gt;qr_code -->
<g id="edge9" class="edge">
<title>root&#45;&gt;qr_code</title>
<path fill="none" stroke="black" d="M599.24,-154.29C634.59,-144.53 701.91,-125.65 758.74,-108 761.81,-107.05 764.99,-106.04 768.17,-105.01"/>
<polygon fill="black" stroke="black" points="769.28,-108.33 777.7,-101.9 767.11,-101.68 769.28,-108.33"/>
</g>
<!-- shared_element_transitions -->
<g id="node11" class="node">
<title>shared_element_transitions</title>
<ellipse fill="none" stroke="black" cx="986.74" cy="-90" rx="116.89" ry="18"/>
<text text-anchor="middle" x="986.74" y="-85.8" font-family="Times,serif" font-size="14.00">shared_element_transitions</text>
</g>
<!-- root&#45;&gt;shared_element_transitions -->
<g id="edge10" class="edge">
<title>root&#45;&gt;shared_element_transitions</title>
<path fill="none" stroke="black" d="M600.51,-156.62C659.49,-146.6 806.49,-121.63 901.17,-105.54"/>
<polygon fill="black" stroke="black" points="902.03,-108.94 911.3,-103.82 900.86,-102.04 902.03,-108.94"/>
</g>
<!-- tutorial -->
<g id="node12" class="node">
<title>tutorial</title>
<ellipse fill="none" stroke="black" cx="1160.74" cy="-90" rx="38.86" ry="18"/>
<text text-anchor="middle" x="1160.74" y="-85.8" font-family="Times,serif" font-size="14.00">tutorial</text>
</g>
<!-- root&#45;&gt;tutorial -->
<g id="edge11" class="edge">
<title>root&#45;&gt;tutorial</title>
<path fill="none" stroke="black" d="M601.69,-160.64C681.01,-159.09 920.13,-150.93 1112.74,-108 1115.93,-107.29 1119.2,-106.43 1122.47,-105.48"/>
<polygon fill="black" stroke="black" points="1123.66,-108.77 1132.13,-102.4 1121.54,-102.1 1123.66,-108.77"/>
</g>
<!-- video -->
<g id="node13" class="node">
<title>video</title>
<ellipse fill="none" stroke="black" cx="1249.74" cy="-90" rx="32.48" ry="18"/>
<text text-anchor="middle" x="1249.74" y="-85.8" font-family="Times,serif" font-size="14.00">video</text>
</g>
<!-- root&#45;&gt;video -->
<g id="edge12" class="edge">
<title>root&#45;&gt;video</title>
<path fill="none" stroke="black" d="M601.82,-159.85C707.31,-155.21 1090.67,-136.67 1208.74,-108 1211.23,-107.4 1213.76,-106.66 1216.29,-105.84"/>
<polygon fill="black" stroke="black" points="1217.68,-109.06 1225.87,-102.35 1215.28,-102.48 1217.68,-109.06"/>
</g>
<!-- shared_element_transitions&#45;&gt;image -->
<g id="edge13" class="edge">
<title>shared_element_transitions&#45;&gt;image</title>
<path fill="none" stroke="black" d="M931.18,-74.15C881.29,-60.83 809.25,-41.58 764.8,-29.7"/>
<polygon fill="black" stroke="black" points="765.5,-26.27 754.94,-27.07 763.7,-33.03 765.5,-26.27"/>
</g>
</g>
</svg>
