<svg width="1546px" height="188px"
 viewBox="0.00 0.00 1545.62 188.00" xmlns="http://www.w3.org/2000/svg" xmlns:xlink="http://www.w3.org/1999/xlink">
<g id="graph0" class="graph" transform="scale(1.0 1.0) rotate(0.0) translate(4.0 184.0)">
<polygon fill="white" stroke="transparent" points="-4,4 -4,-184 1541.62,-184 1541.62,4 -4,4"/>
<!-- photo -->
<g id="node1" class="node">
<title>photo</title>
<ellipse fill="none" stroke="black" cx="322.7" cy="-90" rx="33.07" ry="18"/>
<text text-anchor="middle" x="322.7" y="-85.8" font-family="Times,serif" font-size="14.00">photo</text>
</g>
<!-- image -->
<g id="node2" class="node">
<title>image</title>
<ellipse fill="none" stroke="black" cx="261.7" cy="-18" rx="34.77" ry="18"/>
<text text-anchor="middle" x="261.7" y="-13.8" font-family="Times,serif" font-size="14.00">image</text>
</g>
<!-- photo&#45;&gt;image -->
<g id="edge1" class="edge">
<title>photo&#45;&gt;image</title>
<path fill="none" stroke="black" d="M309.16,-73.46C301.29,-64.44 291.22,-52.88 282.38,-42.73"/>
<polygon fill="black" stroke="black" points="284.83,-40.22 275.62,-34.98 279.55,-44.82 284.83,-40.22"/>
</g>
<!-- video -->
<g id="node3" class="node">
<title>video</title>
<ellipse fill="none" stroke="black" cx="888.7" cy="-18" rx="32.48" ry="18"/>
<text text-anchor="middle" x="888.7" y="-13.8" font-family="Times,serif" font-size="14.00">video</text>
</g>
<!-- photo&#45;&gt;video -->
<g id="edge2" class="edge">
<title>photo&#45;&gt;video</title>
<path fill="none" stroke="black" d="M347.18,-77.74C352.83,-75.52 358.89,-73.44 364.7,-72 539.72,-28.67 756.01,-20.64 846.15,-19.25"/>
<polygon fill="black" stroke="black" points="846.3,-22.74 856.26,-19.11 846.21,-15.74 846.3,-22.74"/>
</g>
<!-- root -->
<g id="node4" class="node">
<title>root</title>
<ellipse fill="none" stroke="black" cx="895.7" cy="-162" rx="27" ry="18"/>
<text text-anchor="middle" x="895.7" y="-157.8" font-family="Times,serif" font-size="14.00">root</text>
</g>
<!-- root&#45;&gt;photo -->
<g id="edge12" class="edge">
<title>root&#45;&gt;photo</title>
<path fill="none" stroke="black" d="M868.72,-161C789.89,-160.42 553.58,-154.63 364.7,-108 362.07,-107.35 359.38,-106.57 356.71,-105.7"/>
<polygon fill="black" stroke="black" points="357.77,-102.36 347.18,-102.27 355.4,-108.95 357.77,-102.36"/>
</g>
<!-- root&#45;&gt;image -->
<g id="edge8" class="edge">
<title>root&#45;&gt;image</title>
<path fill="none" stroke="black" d="M868.77,-160.53C756,-158.34 325.33,-147.41 280.7,-108 263.53,-92.84 259.71,-66.32 259.63,-46.16"/>
<polygon fill="black" stroke="black" points="263.13,-46.09 259.89,-36.01 256.13,-45.91 263.13,-46.09"/>
</g>
<!-- root&#45;&gt;video -->
<g id="edge17" class="edge">
<title>root&#45;&gt;video</title>
<path fill="none" stroke="black" d="M922.9,-160.3C1024.77,-157.39 1379.59,-144.67 1412.7,-108 1423.42,-96.12 1423.42,-83.87 1412.7,-72 1380.59,-36.49 1050.32,-23.61 931.22,-20.1"/>
<polygon fill="black" stroke="black" points="931.13,-16.59 921.03,-19.81 930.92,-23.59 931.13,-16.59"/>
</g>
<!-- calendar -->
<g id="node5" class="node">
<title>calendar</title>
<ellipse fill="none" stroke="black" cx="417.7" cy="-90" rx="43.98" ry="18"/>
<text text-anchor="middle" x="417.7" y="-85.8" font-family="Times,serif" font-size="14.00">calendar</text>
</g>
<!-- root&#45;&gt;calendar -->
<g id="edge3" class="edge">
<title>root&#45;&gt;calendar</title>
<path fill="none" stroke="black" d="M868.55,-159.37C800.75,-154.94 618.82,-140.69 470.7,-108 467.04,-107.19 463.27,-106.24 459.51,-105.2"/>
<polygon fill="black" stroke="black" points="460.25,-101.77 449.66,-102.31 458.27,-108.49 460.25,-101.77"/>
</g>
<!-- charts -->
<g id="node6" class="node">
<title>charts</title>
<ellipse fill="none" stroke="black" cx="513.7" cy="-90" rx="34.19" ry="18"/>
<text text-anchor="middle" x="513.7" y="-85.8" font-family="Times,serif" font-size="14.00">charts</text>
</g>
<!-- root&#45;&gt;charts -->
<g id="edge4" class="edge">
<title>root&#45;&gt;charts</title>
<path fill="none" stroke="black" d="M868.9,-158.84C811.05,-153.74 670.5,-138.98 556.7,-108 554.1,-107.29 551.44,-106.48 548.79,-105.6"/>
<polygon fill="black" stroke="black" points="549.9,-102.28 539.3,-102.19 547.53,-108.87 549.9,-102.28"/>
</g>
<!-- collapsing_toolbar -->
<g id="node7" class="node">
<title>collapsing_toolbar</title>
<ellipse fill="none" stroke="black" cx="648.7" cy="-90" rx="82.83" ry="18"/>
<text text-anchor="middle" x="648.7" y="-85.8" font-family="Times,serif" font-size="14.00">collapsing_toolbar</text>
</g>
<!-- root&#45;&gt;collapsing_toolbar -->
<g id="edge5" class="edge">
<title>root&#45;&gt;collapsing_toolbar</title>
<path fill="none" stroke="black" d="M871.11,-154.03C833.16,-143.28 759.27,-122.34 707.09,-107.55"/>
<polygon fill="black" stroke="black" points="707.86,-104.13 697.29,-104.77 705.95,-110.87 707.86,-104.13"/>
</g>
<!-- document -->
<g id="node8" class="node">
<title>document</title>
<ellipse fill="none" stroke="black" cx="798.7" cy="-90" rx="49.24" ry="18"/>
<text text-anchor="middle" x="798.7" y="-85.8" font-family="Times,serif" font-size="14.00">document</text>
</g>
<!-- root&#45;&gt;document -->
<g id="edge6" class="edge">
<title>root&#45;&gt;document</title>
<path fill="none" stroke="black" d="M877.9,-148.16C864.02,-138.14 844.45,-124.02 828.23,-112.31"/>
<polygon fill="black" stroke="black" points="830.26,-109.46 820.1,-106.45 826.16,-115.14 830.26,-109.46"/>
</g>
<!-- form -->
<g id="node9" class="node">
<title>form</title>
<ellipse fill="none" stroke="black" cx="895.7" cy="-90" rx="29.61" ry="18"/>
<text text-anchor="middle" x="895.7" y="-85.8" font-family="Times,serif" font-size="14.00">form</text>
</g>
<!-- root&#45;&gt;form -->
<g id="edge7" class="edge">
<title>root&#45;&gt;form</title>
<path fill="none" stroke="black" d="M895.7,-143.7C895.7,-135.98 895.7,-126.71 895.7,-118.11"/>
<polygon fill="black" stroke="black" points="899.2,-118.1 895.7,-108.1 892.2,-118.1 899.2,-118.1"/>
</g>
<!-- menu -->
<g id="node10" class="node">
<title>menu</title>
<ellipse fill="none" stroke="black" cx="975.7" cy="-90" rx="32.48" ry="18"/>
<text text-anchor="middle" x="975.7" y="-85.8" font-family="Times,serif" font-size="14.00">menu</text>
</g>
<!-- root&#45;&gt;menu -->
<g id="edge9" class="edge">
<title>root&#45;&gt;menu</title>
<path fill="none" stroke="black" d="M911.5,-147.17C922.89,-137.21 938.47,-123.57 951.43,-112.23"/>
<polygon fill="black" stroke="black" points="953.88,-114.74 959.1,-105.52 949.27,-109.48 953.88,-114.74"/>
</g>
<!-- navigation -->
<g id="node11" class="node">
<title>navigation</title>
<ellipse fill="none" stroke="black" cx="1077.7" cy="-90" rx="51.61" ry="18"/>
<text text-anchor="middle" x="1077.7" y="-85.8" font-family="Times,serif" font-size="14.00">navigation</text>
</g>
<!-- root&#45;&gt;navigation -->
<g id="edge10" class="edge">
<title>root&#45;&gt;navigation</title>
<path fill="none" stroke="black" d="M918.75,-152.13C947.9,-140.92 998.66,-121.4 1034.98,-107.43"/>
<polygon fill="black" stroke="black" points="1036.27,-110.68 1044.35,-103.83 1033.76,-104.15 1036.27,-110.68"/>
</g>
<!-- otp -->
<g id="node12" class="node">
<title>otp</title>
<ellipse fill="none" stroke="black" cx="1174.7" cy="-90" rx="27" ry="18"/>
<text text-anchor="middle" x="1174.7" y="-85.8" font-family="Times,serif" font-size="14.00">otp</text>
</g>
<!-- root&#45;&gt;otp -->
<g id="edge11" class="edge">
<title>root&#45;&gt;otp</title>
<path fill="none" stroke="black" d="M922.12,-157.25C967.32,-150.39 1062.05,-134.08 1138.7,-108 1140.61,-107.35 1142.56,-106.62 1144.5,-105.85"/>
<polygon fill="black" stroke="black" points="1146.3,-108.89 1154.09,-101.71 1143.52,-102.46 1146.3,-108.89"/>
</g>
<!-- qr_code -->
<g id="node13" class="node">
<title>qr_code</title>
<ellipse fill="none" stroke="black" cx="1261.7" cy="-90" rx="42.28" ry="18"/>
<text text-anchor="middle" x="1261.7" y="-85.8" font-family="Times,serif" font-size="14.00">qr_code</text>
</g>
<!-- root&#45;&gt;qr_code -->
<g id="edge13" class="edge">
<title>root&#45;&gt;qr_code</title>
<path fill="none" stroke="black" d="M922.11,-157.96C976.61,-151.39 1105.23,-134.28 1210.7,-108 1214.06,-107.16 1217.52,-106.21 1220.97,-105.19"/>
<polygon fill="black" stroke="black" points="1222.12,-108.5 1230.63,-102.2 1220.05,-101.82 1222.12,-108.5"/>
</g>
<!-- settings -->
<g id="node14" class="node">
<title>settings</title>
<ellipse fill="none" stroke="black" cx="1362.7" cy="-90" rx="40.58" ry="18"/>
<text text-anchor="middle" x="1362.7" y="-85.8" font-family="Times,serif" font-size="14.00">settings</text>
</g>
<!-- root&#45;&gt;settings -->
<g id="edge14" class="edge">
<title>root&#45;&gt;settings</title>
<path fill="none" stroke="black" d="M922.86,-159.45C989.84,-155.2 1168,-141.43 1312.7,-108 1316.1,-107.21 1319.61,-106.28 1323.1,-105.27"/>
<polygon fill="black" stroke="black" points="1324.33,-108.55 1332.84,-102.24 1322.25,-101.87 1324.33,-108.55"/>
</g>
<!-- shared_element_transitions -->
<g id="node15" class="node">
<title>shared_element_transitions</title>
<ellipse fill="none" stroke="black" cx="116.7" cy="-90" rx="116.89" ry="18"/>
<text text-anchor="middle" x="116.7" y="-85.8" font-family="Times,serif" font-size="14.00">shared_element_transitions</text>
</g>
<!-- root&#45;&gt;shared_element_transitions -->
<g id="edge15" class="edge">
<title>root&#45;&gt;shared_element_transitions</title>
<path fill="none" stroke="black" d="M868.8,-159.26C780.01,-153.42 488.19,-133.43 247.7,-108 235.85,-106.75 223.41,-105.3 211.12,-103.8"/>
<polygon fill="black" stroke="black" points="211.19,-100.28 200.84,-102.52 210.33,-107.23 211.19,-100.28"/>
</g>
<!-- tutorial -->
<g id="node16" class="node">
<title>tutorial</title>
<ellipse fill="none" stroke="black" cx="1498.7" cy="-90" rx="38.86" ry="18"/>
<text text-anchor="middle" x="1498.7" y="-85.8" font-family="Times,serif" font-size="14.00">tutorial</text>
</g>
<!-- root&#45;&gt;tutorial -->
<g id="edge16" class="edge">
<title>root&#45;&gt;tutorial</title>
<path fill="none" stroke="black" d="M922.61,-160.44C1002.95,-158.34 1247.69,-148.8 1445.7,-108 1450.13,-107.09 1454.71,-105.94 1459.24,-104.67"/>
<polygon fill="black" stroke="black" points="1460.42,-107.97 1469,-101.76 1458.42,-101.27 1460.42,-107.97"/>
</g>
<!-- shared_element_transitions&#45;&gt;image -->
<g id="edge18" class="edge">
<title>shared_element_transitions&#45;&gt;image</title>
<path fill="none" stroke="black" d="M150.69,-72.59C173.94,-61.36 204.63,-46.55 227.85,-35.34"/>
<polygon fill="black" stroke="black" points="229.49,-38.43 236.98,-30.93 226.45,-32.13 229.49,-38.43"/>
</g>
</g>
</svg>
