<svg width="150px" height="116px"
 viewBox="0.00 0.00 150.30 116.00" xmlns="http://www.w3.org/2000/svg" xmlns:xlink="http://www.w3.org/1999/xlink">
<g id="graph0" class="graph" transform="scale(1.0 1.0) rotate(0.0) translate(4.0 112.0)">
<polygon fill="white" stroke="transparent" points="-4,4 -4,-112 146.3,-112 146.3,4 -4,4"/>
<!-- root -->
<g id="node1" class="node">
<title>root</title>
<ellipse fill="none" stroke="black" cx="69.81" cy="-90" rx="27" ry="18"/>
<text text-anchor="middle" x="69.81" y="-85.8" font-family="Times,serif" font-size="14.00">root</text>
</g>
<!-- form -->
<g id="node2" class="node">
<title>form</title>
<ellipse fill="none" stroke="black" cx="29.81" cy="-18" rx="29.61" ry="18"/>
<text text-anchor="middle" x="29.81" y="-13.8" font-family="Times,serif" font-size="14.00">form</text>
</g>
<!-- root&#45;&gt;form -->
<g id="edge1" class="edge">
<title>root&#45;&gt;form</title>
<path fill="none" stroke="black" d="M60.53,-72.76C55.63,-64.19 49.52,-53.49 44.04,-43.9"/>
<polygon fill="black" stroke="black" points="47.03,-42.09 39.03,-35.15 40.96,-45.57 47.03,-42.09"/>
</g>
<!-- menu -->
<g id="node3" class="node">
<title>menu</title>
<ellipse fill="none" stroke="black" cx="109.81" cy="-18" rx="32.48" ry="18"/>
<text text-anchor="middle" x="109.81" y="-13.8" font-family="Times,serif" font-size="14.00">menu</text>
</g>
<!-- root&#45;&gt;menu -->
<g id="edge2" class="edge">
<title>root&#45;&gt;menu</title>
<path fill="none" stroke="black" d="M79.08,-72.76C83.86,-64.4 89.8,-54.02 95.17,-44.61"/>
<polygon fill="black" stroke="black" points="98.38,-46.05 100.3,-35.63 92.3,-42.58 98.38,-46.05"/>
</g>
</g>
</svg>
