<svg width="736px" height="116px"
 viewBox="0.00 0.00 736.23 116.00" xmlns="http://www.w3.org/2000/svg" xmlns:xlink="http://www.w3.org/1999/xlink">
<g id="graph0" class="graph" transform="scale(1.0 1.0) rotate(0.0) translate(4.0 112.0)">
<polygon fill="white" stroke="transparent" points="-4,4 -4,-112 732.23,-112 732.23,4 -4,4"/>
<!-- root -->
<g id="node1" class="node">
<title>root</title>
<ellipse fill="none" stroke="black" cx="345.74" cy="-90" rx="27" ry="18"/>
<text text-anchor="middle" x="345.74" y="-85.8" font-family="Times,serif" font-size="14.00">root</text>
</g>
<!-- calendar -->
<g id="node2" class="node">
<title>calendar</title>
<ellipse fill="none" stroke="black" cx="43.74" cy="-18" rx="43.98" ry="18"/>
<text text-anchor="middle" x="43.74" y="-13.8" font-family="Times,serif" font-size="14.00">calendar</text>
</g>
<!-- root&#45;&gt;calendar -->
<g id="edge1" class="edge">
<title>root&#45;&gt;calendar</title>
<path fill="none" stroke="black" d="M319.73,-84.36C274.2,-76.03 177.25,-57.42 96.74,-36 93.32,-35.09 89.8,-34.09 86.26,-33.05"/>
<polygon fill="black" stroke="black" points="86.97,-29.61 76.38,-30.04 84.93,-36.3 86.97,-29.61"/>
</g>
<!-- charts -->
<g id="node3" class="node">
<title>charts</title>
<ellipse fill="none" stroke="black" cx="139.74" cy="-18" rx="34.19" ry="18"/>
<text text-anchor="middle" x="139.74" y="-13.8" font-family="Times,serif" font-size="14.00">charts</text>
</g>
<!-- root&#45;&gt;charts -->
<g id="edge2" class="edge">
<title>root&#45;&gt;charts</title>
<path fill="none" stroke="black" d="M321.55,-81.65C289.58,-71.82 231.6,-53.58 182.74,-36 180.36,-35.14 177.91,-34.24 175.46,-33.32"/>
<polygon fill="black" stroke="black" points="176.61,-30.01 166.02,-29.69 174.1,-36.54 176.61,-30.01"/>
</g>
<!-- form -->
<g id="node4" class="node">
<title>form</title>
<ellipse fill="none" stroke="black" cx="221.74" cy="-18" rx="29.61" ry="18"/>
<text text-anchor="middle" x="221.74" y="-13.8" font-family="Times,serif" font-size="14.00">form</text>
</g>
<!-- root&#45;&gt;form -->
<g id="edge3" class="edge">
<title>root&#45;&gt;form</title>
<path fill="none" stroke="black" d="M325.82,-77.75C305.84,-66.48 274.83,-48.97 251.85,-36"/>
<polygon fill="black" stroke="black" points="253.29,-32.79 242.86,-30.92 249.84,-38.89 253.29,-32.79"/>
</g>
<!-- image -->
<g id="node5" class="node">
<title>image</title>
<ellipse fill="none" stroke="black" cx="303.74" cy="-18" rx="34.77" ry="18"/>
<text text-anchor="middle" x="303.74" y="-13.8" font-family="Times,serif" font-size="14.00">image</text>
</g>
<!-- root&#45;&gt;image -->
<g id="edge4" class="edge">
<title>root&#45;&gt;image</title>
<path fill="none" stroke="black" d="M336.21,-73.12C331.07,-64.56 324.62,-53.8 318.82,-44.13"/>
<polygon fill="black" stroke="black" points="321.67,-42.08 313.52,-35.31 315.67,-45.68 321.67,-42.08"/>
</g>
<!-- menu -->
<g id="node6" class="node">
<title>menu</title>
<ellipse fill="none" stroke="black" cx="388.74" cy="-18" rx="32.48" ry="18"/>
<text text-anchor="middle" x="388.74" y="-13.8" font-family="Times,serif" font-size="14.00">menu</text>
</g>
<!-- root&#45;&gt;menu -->
<g id="edge5" class="edge">
<title>root&#45;&gt;menu</title>
<path fill="none" stroke="black" d="M355.5,-73.12C360.81,-64.47 367.5,-53.58 373.48,-43.83"/>
<polygon fill="black" stroke="black" points="376.47,-45.66 378.72,-35.31 370.51,-42 376.47,-45.66"/>
</g>
<!-- navigation -->
<g id="node7" class="node">
<title>navigation</title>
<ellipse fill="none" stroke="black" cx="490.74" cy="-18" rx="51.61" ry="18"/>
<text text-anchor="middle" x="490.74" y="-13.8" font-family="Times,serif" font-size="14.00">navigation</text>
</g>
<!-- root&#45;&gt;navigation -->
<g id="edge6" class="edge">
<title>root&#45;&gt;navigation</title>
<path fill="none" stroke="black" d="M367.13,-78.67C389.54,-67.85 425.21,-50.64 452.48,-37.47"/>
<polygon fill="black" stroke="black" points="454.26,-40.5 461.74,-33 451.21,-34.2 454.26,-40.5"/>
</g>
<!-- qr_code -->
<g id="node8" class="node">
<title>qr_code</title>
<ellipse fill="none" stroke="black" cx="602.74" cy="-18" rx="42.28" ry="18"/>
<text text-anchor="middle" x="602.74" y="-13.8" font-family="Times,serif" font-size="14.00">qr_code</text>
</g>
<!-- root&#45;&gt;qr_code -->
<g id="edge7" class="edge">
<title>root&#45;&gt;qr_code</title>
<path fill="none" stroke="black" d="M370.95,-83.12C409.93,-73.88 487.1,-55.06 551.74,-36 554.87,-35.08 558.1,-34.09 561.34,-33.07"/>
<polygon fill="black" stroke="black" points="562.57,-36.35 571.02,-29.96 560.43,-29.69 562.57,-36.35"/>
</g>
<!-- video -->
<g id="node9" class="node">
<title>video</title>
<ellipse fill="none" stroke="black" cx="695.74" cy="-18" rx="32.48" ry="18"/>
<text text-anchor="middle" x="695.74" y="-13.8" font-family="Times,serif" font-size="14.00">video</text>
</g>
<!-- root&#45;&gt;video -->
<g id="edge8" class="edge">
<title>root&#45;&gt;video</title>
<path fill="none" stroke="black" d="M372.54,-86.34C426.54,-80.56 551.98,-64.99 653.74,-36 656.34,-35.26 659.01,-34.41 661.67,-33.49"/>
<polygon fill="black" stroke="black" points="663.02,-36.73 671.17,-29.97 660.58,-30.16 663.02,-36.73"/>
</g>
</g>
</svg>
