<svg width="1424px" height="188px"
 viewBox="0.00 0.00 1424.48 188.00" xmlns="http://www.w3.org/2000/svg" xmlns:xlink="http://www.w3.org/1999/xlink">
<g id="graph0" class="graph" transform="scale(1.0 1.0) rotate(0.0) translate(4.0 184.0)">
<polygon fill="white" stroke="transparent" points="-4,4 -4,-184 1420.48,-184 1420.48,4 -4,4"/>
<!-- photo -->
<g id="node1" class="node">
<title>photo</title>
<ellipse fill="none" stroke="black" cx="301.55" cy="-90" rx="33.07" ry="18"/>
<text text-anchor="middle" x="301.55" y="-85.8" font-family="Times,serif" font-size="14.00">photo</text>
</g>
<!-- image -->
<g id="node2" class="node">
<title>image</title>
<ellipse fill="none" stroke="black" cx="133.55" cy="-18" rx="34.77" ry="18"/>
<text text-anchor="middle" x="133.55" y="-13.8" font-family="Times,serif" font-size="14.00">image</text>
</g>
<!-- photo&#45;&gt;image -->
<g id="edge1" class="edge">
<title>photo&#45;&gt;image</title>
<path fill="none" stroke="black" d="M276.04,-78.37C247.59,-66.51 201.37,-47.26 169.32,-33.9"/>
<polygon fill="black" stroke="black" points="170.44,-30.58 159.86,-29.96 167.75,-37.04 170.44,-30.58"/>
</g>
<!-- video -->
<g id="node3" class="node">
<title>video</title>
<ellipse fill="none" stroke="black" cx="805.55" cy="-18" rx="32.48" ry="18"/>
<text text-anchor="middle" x="805.55" y="-13.8" font-family="Times,serif" font-size="14.00">video</text>
</g>
<!-- photo&#45;&gt;video -->
<g id="edge2" class="edge">
<title>photo&#45;&gt;video</title>
<path fill="none" stroke="black" d="M326.05,-77.79C331.7,-75.57 337.76,-73.48 343.55,-72 494.58,-33.53 680.54,-22.94 762.87,-20.06"/>
<polygon fill="black" stroke="black" points="763.21,-23.55 773.09,-19.72 762.98,-16.55 763.21,-23.55"/>
</g>
<!-- root -->
<g id="node4" class="node">
<title>root</title>
<ellipse fill="none" stroke="black" cx="825.55" cy="-162" rx="27" ry="18"/>
<text text-anchor="middle" x="825.55" y="-157.8" font-family="Times,serif" font-size="14.00">root</text>
</g>
<!-- root&#45;&gt;photo -->
<g id="edge12" class="edge">
<title>root&#45;&gt;photo</title>
<path fill="none" stroke="black" d="M798.45,-160.61C724.4,-159.01 512.93,-150.72 343.55,-108 340.93,-107.34 338.25,-106.55 335.58,-105.67"/>
<polygon fill="black" stroke="black" points="336.64,-102.34 326.05,-102.23 334.26,-108.92 336.64,-102.34"/>
</g>
<!-- root&#45;&gt;image -->
<g id="edge8" class="edge">
<title>root&#45;&gt;image</title>
<path fill="none" stroke="black" d="M798.43,-160.27C659.72,-156.43 35.23,-137.53 7.55,-108 -3.39,-96.33 -1.3,-85.33 7.55,-72 25.82,-44.5 61.43,-31.24 90.15,-24.86"/>
<polygon fill="black" stroke="black" points="90.87,-28.29 99.98,-22.88 89.49,-21.42 90.87,-28.29"/>
</g>
<!-- root&#45;&gt;video -->
<g id="edge16" class="edge">
<title>root&#45;&gt;video</title>
<path fill="none" stroke="black" d="M852.66,-159.98C947.76,-156.12 1262.14,-140.95 1291.55,-108 1302.21,-96.06 1302.24,-83.91 1291.55,-72 1262.15,-39.22 961.06,-24.76 848.07,-20.46"/>
<polygon fill="black" stroke="black" points="848.18,-16.96 838.06,-20.08 847.92,-23.95 848.18,-16.96"/>
</g>
<!-- calendar -->
<g id="node5" class="node">
<title>calendar</title>
<ellipse fill="none" stroke="black" cx="396.55" cy="-90" rx="43.98" ry="18"/>
<text text-anchor="middle" x="396.55" y="-85.8" font-family="Times,serif" font-size="14.00">calendar</text>
</g>
<!-- root&#45;&gt;calendar -->
<g id="edge3" class="edge">
<title>root&#45;&gt;calendar</title>
<path fill="none" stroke="black" d="M798.83,-158.81C736.84,-153.39 578.71,-137.59 449.55,-108 445.95,-107.17 442.24,-106.22 438.54,-105.18"/>
<polygon fill="black" stroke="black" points="439.41,-101.79 428.82,-102.31 437.42,-108.5 439.41,-101.79"/>
</g>
<!-- charts -->
<g id="node6" class="node">
<title>charts</title>
<ellipse fill="none" stroke="black" cx="492.55" cy="-90" rx="34.19" ry="18"/>
<text text-anchor="middle" x="492.55" y="-85.8" font-family="Times,serif" font-size="14.00">charts</text>
</g>
<!-- root&#45;&gt;charts -->
<g id="edge4" class="edge">
<title>root&#45;&gt;charts</title>
<path fill="none" stroke="black" d="M799.16,-157.94C747.73,-151.58 630.77,-135.24 535.55,-108 532.97,-107.26 530.32,-106.42 527.67,-105.52"/>
<polygon fill="black" stroke="black" points="528.79,-102.21 518.19,-102.08 526.4,-108.79 528.79,-102.21"/>
</g>
<!-- collapsing_toolbar -->
<g id="node7" class="node">
<title>collapsing_toolbar</title>
<ellipse fill="none" stroke="black" cx="627.55" cy="-90" rx="82.83" ry="18"/>
<text text-anchor="middle" x="627.55" y="-85.8" font-family="Times,serif" font-size="14.00">collapsing_toolbar</text>
</g>
<!-- root&#45;&gt;collapsing_toolbar -->
<g id="edge5" class="edge">
<title>root&#45;&gt;collapsing_toolbar</title>
<path fill="none" stroke="black" d="M802.06,-152.7C771.78,-141.99 718.29,-123.08 678.49,-109.01"/>
<polygon fill="black" stroke="black" points="679.54,-105.67 668.94,-105.63 677.2,-112.26 679.54,-105.67"/>
</g>
<!-- document -->
<g id="node8" class="node">
<title>document</title>
<ellipse fill="none" stroke="black" cx="777.55" cy="-90" rx="49.24" ry="18"/>
<text text-anchor="middle" x="777.55" y="-85.8" font-family="Times,serif" font-size="14.00">document</text>
</g>
<!-- root&#45;&gt;document -->
<g id="edge6" class="edge">
<title>root&#45;&gt;document</title>
<path fill="none" stroke="black" d="M814.66,-145.12C808.82,-136.59 801.48,-125.89 794.87,-116.25"/>
<polygon fill="black" stroke="black" points="797.61,-114.07 789.07,-107.8 791.84,-118.02 797.61,-114.07"/>
</g>
<!-- form -->
<g id="node9" class="node">
<title>form</title>
<ellipse fill="none" stroke="black" cx="874.55" cy="-90" rx="29.61" ry="18"/>
<text text-anchor="middle" x="874.55" y="-85.8" font-family="Times,serif" font-size="14.00">form</text>
</g>
<!-- root&#45;&gt;form -->
<g id="edge7" class="edge">
<title>root&#45;&gt;form</title>
<path fill="none" stroke="black" d="M836.43,-145.46C842.62,-136.62 850.52,-125.34 857.52,-115.34"/>
<polygon fill="black" stroke="black" points="860.5,-117.18 863.37,-106.98 854.77,-113.16 860.5,-117.18"/>
</g>
<!-- menu -->
<g id="node10" class="node">
<title>menu</title>
<ellipse fill="none" stroke="black" cx="954.55" cy="-90" rx="32.48" ry="18"/>
<text text-anchor="middle" x="954.55" y="-85.8" font-family="Times,serif" font-size="14.00">menu</text>
</g>
<!-- root&#45;&gt;menu -->
<g id="edge9" class="edge">
<title>root&#45;&gt;menu</title>
<path fill="none" stroke="black" d="M845.99,-149.91C866.69,-138.68 898.98,-121.15 922.97,-108.14"/>
<polygon fill="black" stroke="black" points="924.92,-111.06 932.04,-103.22 921.58,-104.91 924.92,-111.06"/>
</g>
<!-- navigation -->
<g id="node11" class="node">
<title>navigation</title>
<ellipse fill="none" stroke="black" cx="1056.55" cy="-90" rx="51.61" ry="18"/>
<text text-anchor="middle" x="1056.55" y="-85.8" font-family="Times,serif" font-size="14.00">navigation</text>
</g>
<!-- root&#45;&gt;navigation -->
<g id="edge10" class="edge">
<title>root&#45;&gt;navigation</title>
<path fill="none" stroke="black" d="M849.84,-153.64C887.55,-142.21 960.89,-119.99 1009.29,-105.32"/>
<polygon fill="black" stroke="black" points="1010.37,-108.65 1018.92,-102.4 1008.34,-101.95 1010.37,-108.65"/>
</g>
<!-- otp -->
<g id="node12" class="node">
<title>otp</title>
<ellipse fill="none" stroke="black" cx="1153.55" cy="-90" rx="27" ry="18"/>
<text text-anchor="middle" x="1153.55" y="-85.8" font-family="Times,serif" font-size="14.00">otp</text>
</g>
<!-- root&#45;&gt;otp -->
<g id="edge11" class="edge">
<title>root&#45;&gt;otp</title>
<path fill="none" stroke="black" d="M852.29,-158.51C904.37,-153.15 1022.62,-138.45 1117.55,-108 1119.48,-107.38 1121.43,-106.68 1123.39,-105.93"/>
<polygon fill="black" stroke="black" points="1125.16,-108.98 1132.99,-101.84 1122.42,-102.54 1125.16,-108.98"/>
</g>
<!-- qr_code -->
<g id="node13" class="node">
<title>qr_code</title>
<ellipse fill="none" stroke="black" cx="1240.55" cy="-90" rx="42.28" ry="18"/>
<text text-anchor="middle" x="1240.55" y="-85.8" font-family="Times,serif" font-size="14.00">qr_code</text>
</g>
<!-- root&#45;&gt;qr_code -->
<g id="edge13" class="edge">
<title>root&#45;&gt;qr_code</title>
<path fill="none" stroke="black" d="M852.35,-158.74C913.02,-153.26 1065.29,-137.51 1189.55,-108 1192.92,-107.2 1196.39,-106.27 1199.85,-105.28"/>
<polygon fill="black" stroke="black" points="1200.98,-108.59 1209.52,-102.32 1198.93,-101.9 1200.98,-108.59"/>
</g>
<!-- shared_element_transitions -->
<g id="node14" class="node">
<title>shared_element_transitions</title>
<ellipse fill="none" stroke="black" cx="133.55" cy="-90" rx="116.89" ry="18"/>
<text text-anchor="middle" x="133.55" y="-85.8" font-family="Times,serif" font-size="14.00">shared_element_transitions</text>
</g>
<!-- root&#45;&gt;shared_element_transitions -->
<g id="edge14" class="edge">
<title>root&#45;&gt;shared_element_transitions</title>
<path fill="none" stroke="black" d="M798.7,-158.88C717.39,-152.36 466.7,-131.66 259.55,-108 248.89,-106.78 237.73,-105.41 226.66,-104"/>
<polygon fill="black" stroke="black" points="226.89,-100.5 216.52,-102.68 225.99,-107.44 226.89,-100.5"/>
</g>
<!-- tutorial -->
<g id="node15" class="node">
<title>tutorial</title>
<ellipse fill="none" stroke="black" cx="1377.55" cy="-90" rx="38.86" ry="18"/>
<text text-anchor="middle" x="1377.55" y="-85.8" font-family="Times,serif" font-size="14.00">tutorial</text>
</g>
<!-- root&#45;&gt;tutorial -->
<g id="edge15" class="edge">
<title>root&#45;&gt;tutorial</title>
<path fill="none" stroke="black" d="M852.63,-160.07C928.12,-157.06 1147.04,-145.48 1324.55,-108 1328.98,-107.07 1333.56,-105.9 1338.09,-104.63"/>
<polygon fill="black" stroke="black" points="1339.28,-107.93 1347.85,-101.7 1337.27,-101.22 1339.28,-107.93"/>
</g>
<!-- shared_element_transitions&#45;&gt;image -->
<g id="edge17" class="edge">
<title>shared_element_transitions&#45;&gt;image</title>
<path fill="none" stroke="black" d="M133.55,-71.7C133.55,-63.98 133.55,-54.71 133.55,-46.11"/>
<polygon fill="black" stroke="black" points="137.05,-46.1 133.55,-36.1 130.05,-46.1 137.05,-46.1"/>
</g>
</g>
</svg>
