<svg width="1000px" height="116px"
 viewBox="0.00 0.00 1000.23 116.00" xmlns="http://www.w3.org/2000/svg" xmlns:xlink="http://www.w3.org/1999/xlink">
<g id="graph0" class="graph" transform="scale(1.0 1.0) rotate(0.0) translate(4.0 112.0)">
<polygon fill="white" stroke="transparent" points="-4,4 -4,-112 996.23,-112 996.23,4 -4,4"/>
<!-- root -->
<g id="node1" class="node">
<title>root</title>
<ellipse fill="none" stroke="black" cx="536.74" cy="-90" rx="27" ry="18"/>
<text text-anchor="middle" x="536.74" y="-85.8" font-family="Times,serif" font-size="14.00">root</text>
</g>
<!-- calendar -->
<g id="node2" class="node">
<title>calendar</title>
<ellipse fill="none" stroke="black" cx="43.74" cy="-18" rx="43.98" ry="18"/>
<text text-anchor="middle" x="43.74" y="-13.8" font-family="Times,serif" font-size="14.00">calendar</text>
</g>
<!-- root&#45;&gt;calendar -->
<g id="edge1" class="edge">
<title>root&#45;&gt;calendar</title>
<path fill="none" stroke="black" d="M509.91,-87.55C440.75,-83.44 251.02,-69.71 96.74,-36 93.08,-35.2 89.31,-34.25 85.55,-33.22"/>
<polygon fill="black" stroke="black" points="86.28,-29.79 75.7,-30.33 84.31,-36.5 86.28,-29.79"/>
</g>
<!-- charts -->
<g id="node3" class="node">
<title>charts</title>
<ellipse fill="none" stroke="black" cx="139.74" cy="-18" rx="34.19" ry="18"/>
<text text-anchor="middle" x="139.74" y="-13.8" font-family="Times,serif" font-size="14.00">charts</text>
</g>
<!-- root&#45;&gt;charts -->
<g id="edge2" class="edge">
<title>root&#45;&gt;charts</title>
<path fill="none" stroke="black" d="M509.67,-87.06C449.83,-82.32 302.17,-68.1 182.74,-36 180.14,-35.3 177.48,-34.49 174.83,-33.62"/>
<polygon fill="black" stroke="black" points="175.93,-30.3 165.34,-30.22 173.57,-36.89 175.93,-30.3"/>
</g>
<!-- collapsing_toolbar -->
<g id="node4" class="node">
<title>collapsing_toolbar</title>
<ellipse fill="none" stroke="black" cx="274.74" cy="-18" rx="82.83" ry="18"/>
<text text-anchor="middle" x="274.74" y="-13.8" font-family="Times,serif" font-size="14.00">collapsing_toolbar</text>
</g>
<!-- root&#45;&gt;collapsing_toolbar -->
<g id="edge3" class="edge">
<title>root&#45;&gt;collapsing_toolbar</title>
<path fill="none" stroke="black" d="M512.09,-82.41C471.83,-71.66 390.85,-50.02 334.75,-35.03"/>
<polygon fill="black" stroke="black" points="335.49,-31.61 324.92,-32.41 333.68,-38.37 335.49,-31.61"/>
</g>
<!-- form -->
<g id="node5" class="node">
<title>form</title>
<ellipse fill="none" stroke="black" cx="405.74" cy="-18" rx="29.61" ry="18"/>
<text text-anchor="middle" x="405.74" y="-13.8" font-family="Times,serif" font-size="14.00">form</text>
</g>
<!-- root&#45;&gt;form -->
<g id="edge4" class="edge">
<title>root&#45;&gt;form</title>
<path fill="none" stroke="black" d="M516.27,-78.06C494.83,-66.61 460.91,-48.48 436.3,-35.33"/>
<polygon fill="black" stroke="black" points="437.84,-32.19 427.37,-30.56 434.54,-38.36 437.84,-32.19"/>
</g>
<!-- menu -->
<g id="node6" class="node">
<title>menu</title>
<ellipse fill="none" stroke="black" cx="485.74" cy="-18" rx="32.48" ry="18"/>
<text text-anchor="middle" x="485.74" y="-13.8" font-family="Times,serif" font-size="14.00">menu</text>
</g>
<!-- root&#45;&gt;menu -->
<g id="edge5" class="edge">
<title>root&#45;&gt;menu</title>
<path fill="none" stroke="black" d="M525.42,-73.46C518.97,-64.62 510.76,-53.34 503.47,-43.34"/>
<polygon fill="black" stroke="black" points="506.1,-41 497.38,-34.98 500.44,-45.12 506.1,-41"/>
</g>
<!-- navigation -->
<g id="node7" class="node">
<title>navigation</title>
<ellipse fill="none" stroke="black" cx="587.74" cy="-18" rx="51.61" ry="18"/>
<text text-anchor="middle" x="587.74" y="-13.8" font-family="Times,serif" font-size="14.00">navigation</text>
</g>
<!-- root&#45;&gt;navigation -->
<g id="edge6" class="edge">
<title>root&#45;&gt;navigation</title>
<path fill="none" stroke="black" d="M548.06,-73.46C554.32,-64.87 562.26,-53.97 569.39,-44.19"/>
<polygon fill="black" stroke="black" points="572.32,-46.11 575.38,-35.96 566.66,-41.98 572.32,-46.11"/>
</g>
<!-- otp -->
<g id="node8" class="node">
<title>otp</title>
<ellipse fill="none" stroke="black" cx="684.74" cy="-18" rx="27" ry="18"/>
<text text-anchor="middle" x="684.74" y="-13.8" font-family="Times,serif" font-size="14.00">otp</text>
</g>
<!-- root&#45;&gt;otp -->
<g id="edge7" class="edge">
<title>root&#45;&gt;otp</title>
<path fill="none" stroke="black" d="M558.26,-78.82C583.47,-66.9 625.42,-47.06 654.04,-33.52"/>
<polygon fill="black" stroke="black" points="655.65,-36.63 663.19,-29.19 652.66,-30.3 655.65,-36.63"/>
</g>
<!-- qr_code -->
<g id="node9" class="node">
<title>qr_code</title>
<ellipse fill="none" stroke="black" cx="771.74" cy="-18" rx="42.28" ry="18"/>
<text text-anchor="middle" x="771.74" y="-13.8" font-family="Times,serif" font-size="14.00">qr_code</text>
</g>
<!-- root&#45;&gt;qr_code -->
<g id="edge8" class="edge">
<title>root&#45;&gt;qr_code</title>
<path fill="none" stroke="black" d="M561.24,-82.29C596.59,-72.53 663.91,-53.65 720.74,-36 723.81,-35.05 726.99,-34.04 730.17,-33.01"/>
<polygon fill="black" stroke="black" points="731.28,-36.33 739.7,-29.9 729.11,-29.68 731.28,-36.33"/>
</g>
<!-- tutorial -->
<g id="node10" class="node">
<title>tutorial</title>
<ellipse fill="none" stroke="black" cx="870.74" cy="-18" rx="38.86" ry="18"/>
<text text-anchor="middle" x="870.74" y="-13.8" font-family="Times,serif" font-size="14.00">tutorial</text>
</g>
<!-- root&#45;&gt;tutorial -->
<g id="edge9" class="edge">
<title>root&#45;&gt;tutorial</title>
<path fill="none" stroke="black" d="M563.07,-85.53C613.85,-78.54 728.6,-61.23 822.74,-36 825.86,-35.16 829.06,-34.22 832.26,-33.22"/>
<polygon fill="black" stroke="black" points="833.38,-36.54 841.78,-30.08 831.19,-29.89 833.38,-36.54"/>
</g>
<!-- video -->
<g id="node11" class="node">
<title>video</title>
<ellipse fill="none" stroke="black" cx="959.74" cy="-18" rx="32.48" ry="18"/>
<text text-anchor="middle" x="959.74" y="-13.8" font-family="Times,serif" font-size="14.00">video</text>
</g>
<!-- root&#45;&gt;video -->
<g id="edge10" class="edge">
<title>root&#45;&gt;video</title>
<path fill="none" stroke="black" d="M563.61,-87.63C626.64,-83.91 788.55,-71.4 918.74,-36 921.06,-35.37 923.43,-34.64 925.79,-33.84"/>
<polygon fill="black" stroke="black" points="927.22,-37.05 935.38,-30.29 924.79,-30.48 927.22,-37.05"/>
</g>
</g>
</svg>
