<svg width="1087px" height="116px"
 viewBox="0.00 0.00 1087.23 116.00" xmlns="http://www.w3.org/2000/svg" xmlns:xlink="http://www.w3.org/1999/xlink">
<g id="graph0" class="graph" transform="scale(1.0 1.0) rotate(0.0) translate(4.0 112.0)">
<polygon fill="white" stroke="transparent" points="-4,4 -4,-112 1083.23,-112 1083.23,4 -4,4"/>
<!-- root -->
<g id="node1" class="node">
<title>root</title>
<ellipse fill="none" stroke="black" cx="572.74" cy="-90" rx="27" ry="18"/>
<text text-anchor="middle" x="572.74" y="-85.8" font-family="Times,serif" font-size="14.00">root</text>
</g>
<!-- calendar -->
<g id="node2" class="node">
<title>calendar</title>
<ellipse fill="none" stroke="black" cx="43.74" cy="-18" rx="43.98" ry="18"/>
<text text-anchor="middle" x="43.74" y="-13.8" font-family="Times,serif" font-size="14.00">calendar</text>
</g>
<!-- root&#45;&gt;calendar -->
<g id="edge1" class="edge">
<title>root&#45;&gt;calendar</title>
<path fill="none" stroke="black" d="M545.86,-87.89C472.89,-84.46 265.26,-72.03 96.74,-36 93.07,-35.22 89.3,-34.28 85.54,-33.26"/>
<polygon fill="black" stroke="black" points="86.27,-29.82 75.69,-30.38 84.31,-36.54 86.27,-29.82"/>
</g>
<!-- charts -->
<g id="node3" class="node">
<title>charts</title>
<ellipse fill="none" stroke="black" cx="139.74" cy="-18" rx="34.19" ry="18"/>
<text text-anchor="middle" x="139.74" y="-13.8" font-family="Times,serif" font-size="14.00">charts</text>
</g>
<!-- root&#45;&gt;charts -->
<g id="edge2" class="edge">
<title>root&#45;&gt;charts</title>
<path fill="none" stroke="black" d="M545.83,-87.58C481.9,-83.73 316.28,-70.92 182.74,-36 180.13,-35.32 177.47,-34.52 174.82,-33.66"/>
<polygon fill="black" stroke="black" points="175.92,-30.33 165.32,-30.28 173.57,-36.93 175.92,-30.33"/>
</g>
<!-- collapsing_toolbar -->
<g id="node4" class="node">
<title>collapsing_toolbar</title>
<ellipse fill="none" stroke="black" cx="274.74" cy="-18" rx="82.83" ry="18"/>
<text text-anchor="middle" x="274.74" y="-13.8" font-family="Times,serif" font-size="14.00">collapsing_toolbar</text>
</g>
<!-- root&#45;&gt;collapsing_toolbar -->
<g id="edge3" class="edge">
<title>root&#45;&gt;collapsing_toolbar</title>
<path fill="none" stroke="black" d="M547.59,-83.09C501.88,-72.35 403.87,-49.33 338.63,-34.01"/>
<polygon fill="black" stroke="black" points="339.38,-30.59 328.85,-31.71 337.78,-37.4 339.38,-30.59"/>
</g>
<!-- form -->
<g id="node5" class="node">
<title>form</title>
<ellipse fill="none" stroke="black" cx="405.74" cy="-18" rx="29.61" ry="18"/>
<text text-anchor="middle" x="405.74" y="-13.8" font-family="Times,serif" font-size="14.00">form</text>
</g>
<!-- root&#45;&gt;form -->
<g id="edge4" class="edge">
<title>root&#45;&gt;form</title>
<path fill="none" stroke="black" d="M549.81,-79.83C523.95,-69.43 480.68,-51.85 443.74,-36 441.95,-35.23 440.11,-34.43 438.25,-33.63"/>
<polygon fill="black" stroke="black" points="439.56,-30.38 429,-29.54 436.74,-36.78 439.56,-30.38"/>
</g>
<!-- image -->
<g id="node6" class="node">
<title>image</title>
<ellipse fill="none" stroke="black" cx="487.74" cy="-18" rx="34.77" ry="18"/>
<text text-anchor="middle" x="487.74" y="-13.8" font-family="Times,serif" font-size="14.00">image</text>
</g>
<!-- root&#45;&gt;image -->
<g id="edge5" class="edge">
<title>root&#45;&gt;image</title>
<path fill="none" stroke="black" d="M556.35,-75.5C544.17,-65.47 527.32,-51.6 513.37,-40.11"/>
<polygon fill="black" stroke="black" points="515.49,-37.32 505.54,-33.66 511.04,-42.72 515.49,-37.32"/>
</g>
<!-- menu -->
<g id="node7" class="node">
<title>menu</title>
<ellipse fill="none" stroke="black" cx="572.74" cy="-18" rx="32.48" ry="18"/>
<text text-anchor="middle" x="572.74" y="-13.8" font-family="Times,serif" font-size="14.00">menu</text>
</g>
<!-- root&#45;&gt;menu -->
<g id="edge6" class="edge">
<title>root&#45;&gt;menu</title>
<path fill="none" stroke="black" d="M572.74,-71.7C572.74,-63.98 572.74,-54.71 572.74,-46.11"/>
<polygon fill="black" stroke="black" points="576.24,-46.1 572.74,-36.1 569.24,-46.1 576.24,-46.1"/>
</g>
<!-- navigation -->
<g id="node8" class="node">
<title>navigation</title>
<ellipse fill="none" stroke="black" cx="674.74" cy="-18" rx="51.61" ry="18"/>
<text text-anchor="middle" x="674.74" y="-13.8" font-family="Times,serif" font-size="14.00">navigation</text>
</g>
<!-- root&#45;&gt;navigation -->
<g id="edge7" class="edge">
<title>root&#45;&gt;navigation</title>
<path fill="none" stroke="black" d="M590.97,-76.49C605.61,-66.44 626.5,-52.11 643.75,-40.27"/>
<polygon fill="black" stroke="black" points="646.13,-42.88 652.39,-34.34 642.16,-37.11 646.13,-42.88"/>
</g>
<!-- otp -->
<g id="node9" class="node">
<title>otp</title>
<ellipse fill="none" stroke="black" cx="771.74" cy="-18" rx="27" ry="18"/>
<text text-anchor="middle" x="771.74" y="-13.8" font-family="Times,serif" font-size="14.00">otp</text>
</g>
<!-- root&#45;&gt;otp -->
<g id="edge8" class="edge">
<title>root&#45;&gt;otp</title>
<path fill="none" stroke="black" d="M597.11,-82.13C629.27,-72.82 687.47,-55.15 735.74,-36 737.57,-35.27 739.44,-34.5 741.32,-33.69"/>
<polygon fill="black" stroke="black" points="742.92,-36.81 750.62,-29.52 740.06,-30.42 742.92,-36.81"/>
</g>
<!-- qr_code -->
<g id="node10" class="node">
<title>qr_code</title>
<ellipse fill="none" stroke="black" cx="858.74" cy="-18" rx="42.28" ry="18"/>
<text text-anchor="middle" x="858.74" y="-13.8" font-family="Times,serif" font-size="14.00">qr_code</text>
</g>
<!-- root&#45;&gt;qr_code -->
<g id="edge9" class="edge">
<title>root&#45;&gt;qr_code</title>
<path fill="none" stroke="black" d="M598.33,-84.1C641.73,-75.6 732.4,-57 807.74,-36 810.93,-35.11 814.22,-34.14 817.51,-33.13"/>
<polygon fill="black" stroke="black" points="818.86,-36.38 827.33,-30.02 816.74,-29.7 818.86,-36.38"/>
</g>
<!-- tutorial -->
<g id="node11" class="node">
<title>tutorial</title>
<ellipse fill="none" stroke="black" cx="957.74" cy="-18" rx="38.86" ry="18"/>
<text text-anchor="middle" x="957.74" y="-13.8" font-family="Times,serif" font-size="14.00">tutorial</text>
</g>
<!-- root&#45;&gt;tutorial -->
<g id="edge10" class="edge">
<title>root&#45;&gt;tutorial</title>
<path fill="none" stroke="black" d="M599.29,-86.51C656.63,-80.76 796.06,-64.81 909.74,-36 912.87,-35.21 916.08,-34.3 919.29,-33.31"/>
<polygon fill="black" stroke="black" points="920.39,-36.64 928.81,-30.21 918.22,-29.98 920.39,-36.64"/>
</g>
<!-- video -->
<g id="node12" class="node">
<title>video</title>
<ellipse fill="none" stroke="black" cx="1046.74" cy="-18" rx="32.48" ry="18"/>
<text text-anchor="middle" x="1046.74" y="-13.8" font-family="Times,serif" font-size="14.00">video</text>
</g>
<!-- root&#45;&gt;video -->
<g id="edge11" class="edge">
<title>root&#45;&gt;video</title>
<path fill="none" stroke="black" d="M599.82,-88.22C668.71,-85.71 855.78,-75.48 1005.74,-36 1008.07,-35.39 1010.43,-34.67 1012.8,-33.89"/>
<polygon fill="black" stroke="black" points="1014.22,-37.09 1022.4,-30.36 1011.8,-30.52 1014.22,-37.09"/>
</g>
</g>
</svg>
