<svg width="442px" height="116px"
 viewBox="0.00 0.00 442.23 116.00" xmlns="http://www.w3.org/2000/svg" xmlns:xlink="http://www.w3.org/1999/xlink">
<g id="graph0" class="graph" transform="scale(1.0 1.0) rotate(0.0) translate(4.0 112.0)">
<polygon fill="white" stroke="transparent" points="-4,4 -4,-112 438.23,-112 438.23,4 -4,4"/>
<!-- root -->
<g id="node1" class="node">
<title>root</title>
<ellipse fill="none" stroke="black" cx="215.74" cy="-90" rx="27" ry="18"/>
<text text-anchor="middle" x="215.74" y="-85.8" font-family="Times,serif" font-size="14.00">root</text>
</g>
<!-- calendar -->
<g id="node2" class="node">
<title>calendar</title>
<ellipse fill="none" stroke="black" cx="43.74" cy="-18" rx="43.98" ry="18"/>
<text text-anchor="middle" x="43.74" y="-13.8" font-family="Times,serif" font-size="14.00">calendar</text>
</g>
<!-- root&#45;&gt;calendar -->
<g id="edge1" class="edge">
<title>root&#45;&gt;calendar</title>
<path fill="none" stroke="black" d="M193.25,-79.85C165.41,-68.52 117.48,-49.01 83.4,-35.14"/>
<polygon fill="black" stroke="black" points="84.33,-31.74 73.75,-31.21 81.69,-38.22 84.33,-31.74"/>
</g>
<!-- form -->
<g id="node3" class="node">
<title>form</title>
<ellipse fill="none" stroke="black" cx="135.74" cy="-18" rx="29.61" ry="18"/>
<text text-anchor="middle" x="135.74" y="-13.8" font-family="Times,serif" font-size="14.00">form</text>
</g>
<!-- root&#45;&gt;form -->
<g id="edge2" class="edge">
<title>root&#45;&gt;form</title>
<path fill="none" stroke="black" d="M199.93,-75.17C188.47,-65.14 172.76,-51.39 159.75,-40.01"/>
<polygon fill="black" stroke="black" points="161.89,-37.23 152.06,-33.28 157.28,-42.5 161.89,-37.23"/>
</g>
<!-- menu -->
<g id="node4" class="node">
<title>menu</title>
<ellipse fill="none" stroke="black" cx="215.74" cy="-18" rx="32.48" ry="18"/>
<text text-anchor="middle" x="215.74" y="-13.8" font-family="Times,serif" font-size="14.00">menu</text>
</g>
<!-- root&#45;&gt;menu -->
<g id="edge3" class="edge">
<title>root&#45;&gt;menu</title>
<path fill="none" stroke="black" d="M215.74,-71.7C215.74,-63.98 215.74,-54.71 215.74,-46.11"/>
<polygon fill="black" stroke="black" points="219.24,-46.1 215.74,-36.1 212.24,-46.1 219.24,-46.1"/>
</g>
<!-- qr_code -->
<g id="node5" class="node">
<title>qr_code</title>
<ellipse fill="none" stroke="black" cx="308.74" cy="-18" rx="42.28" ry="18"/>
<text text-anchor="middle" x="308.74" y="-13.8" font-family="Times,serif" font-size="14.00">qr_code</text>
</g>
<!-- root&#45;&gt;qr_code -->
<g id="edge4" class="edge">
<title>root&#45;&gt;qr_code</title>
<path fill="none" stroke="black" d="M233.23,-75.83C246.55,-65.81 265.15,-51.81 280.56,-40.21"/>
<polygon fill="black" stroke="black" points="282.86,-42.86 288.74,-34.05 278.65,-37.27 282.86,-42.86"/>
</g>
<!-- video -->
<g id="node6" class="node">
<title>video</title>
<ellipse fill="none" stroke="black" cx="401.74" cy="-18" rx="32.48" ry="18"/>
<text text-anchor="middle" x="401.74" y="-13.8" font-family="Times,serif" font-size="14.00">video</text>
</g>
<!-- root&#45;&gt;video -->
<g id="edge5" class="edge">
<title>root&#45;&gt;video</title>
<path fill="none" stroke="black" d="M239.02,-80.69C267.56,-70.44 317.37,-52.37 359.74,-36 362.11,-35.08 364.56,-34.12 367.02,-33.15"/>
<polygon fill="black" stroke="black" points="368.48,-36.34 376.47,-29.38 365.89,-29.84 368.48,-36.34"/>
</g>
</g>
</svg>
