<svg width="1198px" height="116px"
 viewBox="0.00 0.00 1198.23 116.00" xmlns="http://www.w3.org/2000/svg" xmlns:xlink="http://www.w3.org/1999/xlink">
<g id="graph0" class="graph" transform="scale(1.0 1.0) rotate(0.0) translate(4.0 112.0)">
<polygon fill="white" stroke="transparent" points="-4,4 -4,-112 1194.23,-112 1194.23,4 -4,4"/>
<!-- root -->
<g id="node1" class="node">
<title>root</title>
<ellipse fill="none" stroke="black" cx="623.74" cy="-90" rx="27" ry="18"/>
<text text-anchor="middle" x="623.74" y="-85.8" font-family="Times,serif" font-size="14.00">root</text>
</g>
<!-- calendar -->
<g id="node2" class="node">
<title>calendar</title>
<ellipse fill="none" stroke="black" cx="43.74" cy="-18" rx="43.98" ry="18"/>
<text text-anchor="middle" x="43.74" y="-13.8" font-family="Times,serif" font-size="14.00">calendar</text>
</g>
<!-- root&#45;&gt;calendar -->
<g id="edge1" class="edge">
<title>root&#45;&gt;calendar</title>
<path fill="none" stroke="black" d="M596.84,-88.29C518.75,-85.79 285.56,-75.32 96.74,-36 93.07,-35.24 89.3,-34.31 85.53,-33.3"/>
<polygon fill="black" stroke="black" points="86.26,-29.86 75.68,-30.44 84.31,-36.59 86.26,-29.86"/>
</g>
<!-- charts -->
<g id="node3" class="node">
<title>charts</title>
<ellipse fill="none" stroke="black" cx="139.74" cy="-18" rx="34.19" ry="18"/>
<text text-anchor="middle" x="139.74" y="-13.8" font-family="Times,serif" font-size="14.00">charts</text>
</g>
<!-- root&#45;&gt;charts -->
<g id="edge2" class="edge">
<title>root&#45;&gt;charts</title>
<path fill="none" stroke="black" d="M596.71,-88.16C527.05,-85.48 336.17,-74.86 182.74,-36 180.13,-35.34 177.47,-34.56 174.81,-33.7"/>
<polygon fill="black" stroke="black" points="175.9,-30.38 165.31,-30.35 173.57,-36.98 175.9,-30.38"/>
</g>
<!-- collapsing_toolbar -->
<g id="node4" class="node">
<title>collapsing_toolbar</title>
<ellipse fill="none" stroke="black" cx="274.74" cy="-18" rx="82.83" ry="18"/>
<text text-anchor="middle" x="274.74" y="-13.8" font-family="Times,serif" font-size="14.00">collapsing_toolbar</text>
</g>
<!-- root&#45;&gt;collapsing_toolbar -->
<g id="edge3" class="edge">
<title>root&#45;&gt;collapsing_toolbar</title>
<path fill="none" stroke="black" d="M598.08,-83.85C545.05,-73.22 421.82,-48.5 343.73,-32.84"/>
<polygon fill="black" stroke="black" points="343.99,-29.32 333.5,-30.79 342.61,-36.18 343.99,-29.32"/>
</g>
<!-- form -->
<g id="node5" class="node">
<title>form</title>
<ellipse fill="none" stroke="black" cx="405.74" cy="-18" rx="29.61" ry="18"/>
<text text-anchor="middle" x="405.74" y="-13.8" font-family="Times,serif" font-size="14.00">form</text>
</g>
<!-- root&#45;&gt;form -->
<g id="edge4" class="edge">
<title>root&#45;&gt;form</title>
<path fill="none" stroke="black" d="M598.94,-82.83C563.91,-73.86 498.14,-56.07 443.74,-36 441.86,-35.31 439.94,-34.56 438.01,-33.79"/>
<polygon fill="black" stroke="black" points="439.02,-30.41 428.44,-29.75 436.29,-36.86 439.02,-30.41"/>
</g>
<!-- image -->
<g id="node6" class="node">
<title>image</title>
<ellipse fill="none" stroke="black" cx="487.74" cy="-18" rx="34.77" ry="18"/>
<text text-anchor="middle" x="487.74" y="-13.8" font-family="Times,serif" font-size="14.00">image</text>
</g>
<!-- root&#45;&gt;image -->
<g id="edge5" class="edge">
<title>root&#45;&gt;image</title>
<path fill="none" stroke="black" d="M603.08,-78.37C581.24,-67.13 546.47,-49.23 520.81,-36.02"/>
<polygon fill="black" stroke="black" points="522.3,-32.85 511.81,-31.39 519.1,-39.08 522.3,-32.85"/>
</g>
<!-- menu -->
<g id="node7" class="node">
<title>menu</title>
<ellipse fill="none" stroke="black" cx="572.74" cy="-18" rx="32.48" ry="18"/>
<text text-anchor="middle" x="572.74" y="-13.8" font-family="Times,serif" font-size="14.00">menu</text>
</g>
<!-- root&#45;&gt;menu -->
<g id="edge6" class="edge">
<title>root&#45;&gt;menu</title>
<path fill="none" stroke="black" d="M612.42,-73.46C605.97,-64.62 597.76,-53.34 590.47,-43.34"/>
<polygon fill="black" stroke="black" points="593.1,-41 584.38,-34.98 587.44,-45.12 593.1,-41"/>
</g>
<!-- navigation -->
<g id="node8" class="node">
<title>navigation</title>
<ellipse fill="none" stroke="black" cx="674.74" cy="-18" rx="51.61" ry="18"/>
<text text-anchor="middle" x="674.74" y="-13.8" font-family="Times,serif" font-size="14.00">navigation</text>
</g>
<!-- root&#45;&gt;navigation -->
<g id="edge7" class="edge">
<title>root&#45;&gt;navigation</title>
<path fill="none" stroke="black" d="M635.06,-73.46C641.32,-64.87 649.26,-53.97 656.39,-44.19"/>
<polygon fill="black" stroke="black" points="659.32,-46.11 662.38,-35.96 653.66,-41.98 659.32,-46.11"/>
</g>
<!-- otp -->
<g id="node9" class="node">
<title>otp</title>
<ellipse fill="none" stroke="black" cx="771.74" cy="-18" rx="27" ry="18"/>
<text text-anchor="middle" x="771.74" y="-13.8" font-family="Times,serif" font-size="14.00">otp</text>
</g>
<!-- root&#45;&gt;otp -->
<g id="edge8" class="edge">
<title>root&#45;&gt;otp</title>
<path fill="none" stroke="black" d="M645.26,-78.82C670.47,-66.9 712.42,-47.06 741.04,-33.52"/>
<polygon fill="black" stroke="black" points="742.65,-36.63 750.19,-29.19 739.66,-30.3 742.65,-36.63"/>
</g>
<!-- pin_code -->
<g id="node10" class="node">
<title>pin_code</title>
<ellipse fill="none" stroke="black" cx="862.74" cy="-18" rx="46.37" ry="18"/>
<text text-anchor="middle" x="862.74" y="-13.8" font-family="Times,serif" font-size="14.00">pin_code</text>
</g>
<!-- root&#45;&gt;pin_code -->
<g id="edge9" class="edge">
<title>root&#45;&gt;pin_code</title>
<path fill="none" stroke="black" d="M648.19,-82.12C683.48,-72.15 750.72,-53.02 807.74,-36 811.1,-35 814.57,-33.95 818.05,-32.89"/>
<polygon fill="black" stroke="black" points="819.32,-36.16 827.86,-29.89 817.27,-29.47 819.32,-36.16"/>
</g>
<!-- qr_code -->
<g id="node11" class="node">
<title>qr_code</title>
<ellipse fill="none" stroke="black" cx="969.74" cy="-18" rx="42.28" ry="18"/>
<text text-anchor="middle" x="969.74" y="-13.8" font-family="Times,serif" font-size="14.00">qr_code</text>
</g>
<!-- root&#45;&gt;qr_code -->
<g id="edge10" class="edge">
<title>root&#45;&gt;qr_code</title>
<path fill="none" stroke="black" d="M649.95,-85.51C701.65,-78.36 820.18,-60.62 917.74,-36 921.31,-35.1 924.99,-34.08 928.67,-33"/>
<polygon fill="black" stroke="black" points="929.79,-36.32 938.32,-30.04 927.73,-29.63 929.79,-36.32"/>
</g>
<!-- tutorial -->
<g id="node12" class="node">
<title>tutorial</title>
<ellipse fill="none" stroke="black" cx="1068.74" cy="-18" rx="38.86" ry="18"/>
<text text-anchor="middle" x="1068.74" y="-13.8" font-family="Times,serif" font-size="14.00">tutorial</text>
</g>
<!-- root&#45;&gt;tutorial -->
<g id="edge11" class="edge">
<title>root&#45;&gt;tutorial</title>
<path fill="none" stroke="black" d="M650.57,-87.35C715.12,-82.95 883.85,-69 1020.74,-36 1023.92,-35.23 1027.18,-34.33 1030.44,-33.35"/>
<polygon fill="black" stroke="black" points="1031.66,-36.64 1040.1,-30.24 1029.5,-29.98 1031.66,-36.64"/>
</g>
<!-- video -->
<g id="node13" class="node">
<title>video</title>
<ellipse fill="none" stroke="black" cx="1157.74" cy="-18" rx="32.48" ry="18"/>
<text text-anchor="middle" x="1157.74" y="-13.8" font-family="Times,serif" font-size="14.00">video</text>
</g>
<!-- root&#45;&gt;video -->
<g id="edge12" class="edge">
<title>root&#45;&gt;video</title>
<path fill="none" stroke="black" d="M650.94,-88.78C726.23,-87.61 943.25,-80.31 1116.74,-36 1119.22,-35.37 1121.75,-34.61 1124.27,-33.77"/>
<polygon fill="black" stroke="black" points="1125.68,-36.99 1133.85,-30.25 1123.26,-30.42 1125.68,-36.99"/>
</g>
</g>
</svg>
