<svg width="1909px" height="188px"
 viewBox="0.00 0.00 1909.01 188.00" xmlns="http://www.w3.org/2000/svg" xmlns:xlink="http://www.w3.org/1999/xlink">
<g id="graph0" class="graph" transform="scale(1.0 1.0) rotate(0.0) translate(4.0 184.0)">
<polygon fill="white" stroke="transparent" points="-4,4 -4,-184 1905.01,-184 1905.01,4 -4,4"/>
<!-- photo -->
<g id="node1" class="node">
<title>photo</title>
<ellipse fill="none" stroke="black" cx="77.63" cy="-90" rx="33.07" ry="18"/>
<text text-anchor="middle" x="77.63" y="-85.8" font-family="Times,serif" font-size="14.00">photo</text>
</g>
<!-- image -->
<g id="node2" class="node">
<title>image</title>
<ellipse fill="none" stroke="black" cx="34.63" cy="-18" rx="34.77" ry="18"/>
<text text-anchor="middle" x="34.63" y="-13.8" font-family="Times,serif" font-size="14.00">image</text>
</g>
<!-- photo&#45;&gt;image -->
<g id="edge1" class="edge">
<title>photo&#45;&gt;image</title>
<path fill="none" stroke="black" d="M67.66,-72.76C62.47,-64.32 56.01,-53.8 50.18,-44.31"/>
<polygon fill="black" stroke="black" points="53.07,-42.32 44.85,-35.63 47.1,-45.99 53.07,-42.32"/>
</g>
<!-- video -->
<g id="node3" class="node">
<title>video</title>
<ellipse fill="none" stroke="black" cx="128.63" cy="-18" rx="32.48" ry="18"/>
<text text-anchor="middle" x="128.63" y="-13.8" font-family="Times,serif" font-size="14.00">video</text>
</g>
<!-- photo&#45;&gt;video -->
<g id="edge2" class="edge">
<title>photo&#45;&gt;video</title>
<path fill="none" stroke="black" d="M89.21,-73.12C95.57,-64.38 103.61,-53.35 110.76,-43.54"/>
<polygon fill="black" stroke="black" points="113.69,-45.45 116.75,-35.31 108.04,-41.33 113.69,-45.45"/>
</g>
<!-- root -->
<g id="node4" class="node">
<title>root</title>
<ellipse fill="none" stroke="black" cx="819.63" cy="-162" rx="27" ry="18"/>
<text text-anchor="middle" x="819.63" y="-157.8" font-family="Times,serif" font-size="14.00">root</text>
</g>
<!-- root&#45;&gt;photo -->
<g id="edge12" class="edge">
<title>root&#45;&gt;photo</title>
<path fill="none" stroke="black" d="M792.43,-161.55C698.54,-162.89 379.89,-162.83 124.63,-108 120.74,-107.16 116.73,-106.08 112.77,-104.86"/>
<polygon fill="black" stroke="black" points="113.72,-101.49 103.12,-101.64 111.5,-108.13 113.72,-101.49"/>
</g>
<!-- root&#45;&gt;image -->
<g id="edge8" class="edge">
<title>root&#45;&gt;image</title>
<path fill="none" stroke="black" d="M792.48,-161.29C660.32,-162.43 88.64,-164.08 35.63,-108 20.34,-91.82 21.95,-65.65 26.27,-45.87"/>
<polygon fill="black" stroke="black" points="29.73,-46.47 28.79,-35.92 22.94,-44.76 29.73,-46.47"/>
</g>
<!-- root&#45;&gt;video -->
<g id="edge19" class="edge">
<title>root&#45;&gt;video</title>
<path fill="none" stroke="black" d="M792.38,-160.58C674.02,-158.5 208.16,-147.85 157.63,-108 139.05,-93.34 132.23,-66.57 129.8,-46.2"/>
<polygon fill="black" stroke="black" points="133.28,-45.87 128.89,-36.23 126.31,-46.5 133.28,-45.87"/>
</g>
<!-- calendar -->
<g id="node5" class="node">
<title>calendar</title>
<ellipse fill="none" stroke="black" cx="210.63" cy="-90" rx="43.98" ry="18"/>
<text text-anchor="middle" x="210.63" y="-85.8" font-family="Times,serif" font-size="14.00">calendar</text>
</g>
<!-- root&#45;&gt;calendar -->
<g id="edge3" class="edge">
<title>root&#45;&gt;calendar</title>
<path fill="none" stroke="black" d="M792.71,-160.48C711.8,-158.49 464.04,-149.19 263.63,-108 259.96,-107.25 256.19,-106.33 252.43,-105.32"/>
<polygon fill="black" stroke="black" points="253.15,-101.88 242.57,-102.46 251.2,-108.61 253.15,-101.88"/>
</g>
<!-- charts -->
<g id="node6" class="node">
<title>charts</title>
<ellipse fill="none" stroke="black" cx="306.63" cy="-90" rx="34.19" ry="18"/>
<text text-anchor="middle" x="306.63" y="-85.8" font-family="Times,serif" font-size="14.00">charts</text>
</g>
<!-- root&#45;&gt;charts -->
<g id="edge4" class="edge">
<title>root&#45;&gt;charts</title>
<path fill="none" stroke="black" d="M792.7,-160.44C720.07,-158.4 514.56,-149.13 349.63,-108 346.86,-107.31 344.02,-106.48 341.2,-105.57"/>
<polygon fill="black" stroke="black" points="342.33,-102.25 331.74,-102.21 339.99,-108.85 342.33,-102.25"/>
</g>
<!-- collapsing_toolbar -->
<g id="node7" class="node">
<title>collapsing_toolbar</title>
<ellipse fill="none" stroke="black" cx="441.63" cy="-90" rx="82.83" ry="18"/>
<text text-anchor="middle" x="441.63" y="-85.8" font-family="Times,serif" font-size="14.00">collapsing_toolbar</text>
</g>
<!-- root&#45;&gt;collapsing_toolbar -->
<g id="edge5" class="edge">
<title>root&#45;&gt;collapsing_toolbar</title>
<path fill="none" stroke="black" d="M793.95,-156.24C736.89,-145.68 597.88,-119.93 512.52,-104.13"/>
<polygon fill="black" stroke="black" points="513.11,-100.68 502.64,-102.3 511.84,-107.56 513.11,-100.68"/>
</g>
<!-- document -->
<g id="node8" class="node">
<title>document</title>
<ellipse fill="none" stroke="black" cx="591.63" cy="-90" rx="49.24" ry="18"/>
<text text-anchor="middle" x="591.63" y="-85.8" font-family="Times,serif" font-size="14.00">document</text>
</g>
<!-- root&#45;&gt;document -->
<g id="edge6" class="edge">
<title>root&#45;&gt;document</title>
<path fill="none" stroke="black" d="M795.67,-153.64C758.31,-142.17 685.53,-119.83 637.76,-105.16"/>
<polygon fill="black" stroke="black" points="638.56,-101.74 627.97,-102.16 636.5,-108.44 638.56,-101.74"/>
</g>
<!-- form -->
<g id="node9" class="node">
<title>form</title>
<ellipse fill="none" stroke="black" cx="688.63" cy="-90" rx="29.61" ry="18"/>
<text text-anchor="middle" x="688.63" y="-85.8" font-family="Times,serif" font-size="14.00">form</text>
</g>
<!-- root&#45;&gt;form -->
<g id="edge7" class="edge">
<title>root&#45;&gt;form</title>
<path fill="none" stroke="black" d="M799.17,-150.06C777.73,-138.61 743.81,-120.48 719.2,-107.33"/>
<polygon fill="black" stroke="black" points="720.74,-104.19 710.27,-102.56 717.44,-110.36 720.74,-104.19"/>
</g>
<!-- menu -->
<g id="node10" class="node">
<title>menu</title>
<ellipse fill="none" stroke="black" cx="768.63" cy="-90" rx="32.48" ry="18"/>
<text text-anchor="middle" x="768.63" y="-85.8" font-family="Times,serif" font-size="14.00">menu</text>
</g>
<!-- root&#45;&gt;menu -->
<g id="edge9" class="edge">
<title>root&#45;&gt;menu</title>
<path fill="none" stroke="black" d="M808.32,-145.46C801.87,-136.62 793.65,-125.34 786.37,-115.34"/>
<polygon fill="black" stroke="black" points="788.99,-113 780.27,-106.98 783.33,-117.12 788.99,-113"/>
</g>
<!-- navigation -->
<g id="node11" class="node">
<title>navigation</title>
<ellipse fill="none" stroke="black" cx="870.63" cy="-90" rx="51.61" ry="18"/>
<text text-anchor="middle" x="870.63" y="-85.8" font-family="Times,serif" font-size="14.00">navigation</text>
</g>
<!-- root&#45;&gt;navigation -->
<g id="edge10" class="edge">
<title>root&#45;&gt;navigation</title>
<path fill="none" stroke="black" d="M830.95,-145.46C837.22,-136.87 845.16,-125.97 852.28,-116.19"/>
<polygon fill="black" stroke="black" points="855.22,-118.11 858.28,-107.96 849.56,-113.98 855.22,-118.11"/>
</g>
<!-- otp -->
<g id="node12" class="node">
<title>otp</title>
<ellipse fill="none" stroke="black" cx="967.63" cy="-90" rx="27" ry="18"/>
<text text-anchor="middle" x="967.63" y="-85.8" font-family="Times,serif" font-size="14.00">otp</text>
</g>
<!-- root&#45;&gt;otp -->
<g id="edge11" class="edge">
<title>root&#45;&gt;otp</title>
<path fill="none" stroke="black" d="M841.15,-150.82C866.36,-138.9 908.32,-119.06 936.94,-105.52"/>
<polygon fill="black" stroke="black" points="938.54,-108.63 946.09,-101.19 935.55,-102.3 938.54,-108.63"/>
</g>
<!-- pin_code -->
<g id="node13" class="node">
<title>pin_code</title>
<ellipse fill="none" stroke="black" cx="1058.63" cy="-90" rx="46.37" ry="18"/>
<text text-anchor="middle" x="1058.63" y="-85.8" font-family="Times,serif" font-size="14.00">pin_code</text>
</g>
<!-- root&#45;&gt;pin_code -->
<g id="edge13" class="edge">
<title>root&#45;&gt;pin_code</title>
<path fill="none" stroke="black" d="M844.08,-154.12C879.38,-144.15 946.62,-125.02 1003.63,-108 1006.99,-107 1010.46,-105.95 1013.95,-104.89"/>
<polygon fill="black" stroke="black" points="1015.21,-108.16 1023.75,-101.89 1013.16,-101.47 1015.21,-108.16"/>
</g>
<!-- qr_code -->
<g id="node14" class="node">
<title>qr_code</title>
<ellipse fill="none" stroke="black" cx="1165.63" cy="-90" rx="42.28" ry="18"/>
<text text-anchor="middle" x="1165.63" y="-85.8" font-family="Times,serif" font-size="14.00">qr_code</text>
</g>
<!-- root&#45;&gt;qr_code -->
<g id="edge14" class="edge">
<title>root&#45;&gt;qr_code</title>
<path fill="none" stroke="black" d="M845.85,-157.51C897.54,-150.36 1016.07,-132.62 1113.63,-108 1117.21,-107.1 1120.89,-106.08 1124.57,-105"/>
<polygon fill="black" stroke="black" points="1125.68,-108.32 1134.21,-102.04 1123.63,-101.63 1125.68,-108.32"/>
</g>
<!-- settings -->
<g id="node15" class="node">
<title>settings</title>
<ellipse fill="none" stroke="black" cx="1266.63" cy="-90" rx="40.58" ry="18"/>
<text text-anchor="middle" x="1266.63" y="-85.8" font-family="Times,serif" font-size="14.00">settings</text>
</g>
<!-- root&#45;&gt;settings -->
<g id="edge15" class="edge">
<title>root&#45;&gt;settings</title>
<path fill="none" stroke="black" d="M846.44,-159.23C910.93,-154.59 1079.54,-140.13 1216.63,-108 1220.04,-107.2 1223.54,-106.26 1227.03,-105.25"/>
<polygon fill="black" stroke="black" points="1228.26,-108.53 1236.77,-102.21 1226.18,-101.85 1228.26,-108.53"/>
</g>
<!-- shared_element_transitions -->
<g id="node16" class="node">
<title>shared_element_transitions</title>
<ellipse fill="none" stroke="black" cx="1441.63" cy="-90" rx="116.89" ry="18"/>
<text text-anchor="middle" x="1441.63" y="-85.8" font-family="Times,serif" font-size="14.00">shared_element_transitions</text>
</g>
<!-- root&#45;&gt;shared_element_transitions -->
<g id="edge16" class="edge">
<title>root&#45;&gt;shared_element_transitions</title>
<path fill="none" stroke="black" d="M846.33,-158.43C920.83,-151.19 1137.24,-129.76 1316.63,-108 1326.85,-106.76 1337.53,-105.4 1348.15,-104.01"/>
<polygon fill="black" stroke="black" points="1348.85,-107.45 1358.3,-102.67 1347.93,-100.51 1348.85,-107.45"/>
</g>
<!-- tutorial -->
<g id="node17" class="node">
<title>tutorial</title>
<ellipse fill="none" stroke="black" cx="1615.63" cy="-90" rx="38.86" ry="18"/>
<text text-anchor="middle" x="1615.63" y="-85.8" font-family="Times,serif" font-size="14.00">tutorial</text>
</g>
<!-- root&#45;&gt;tutorial -->
<g id="edge17" class="edge">
<title>root&#45;&gt;tutorial</title>
<path fill="none" stroke="black" d="M846.63,-160.06C963.41,-155.86 1425.53,-137.63 1567.63,-108 1570.88,-107.32 1574.2,-106.48 1577.52,-105.53"/>
<polygon fill="black" stroke="black" points="1578.83,-108.79 1587.31,-102.45 1576.72,-102.11 1578.83,-108.79"/>
</g>
<!-- uploader -->
<g id="node18" class="node">
<title>uploader</title>
<ellipse fill="none" stroke="black" cx="1717.63" cy="-90" rx="44.65" ry="18"/>
<text text-anchor="middle" x="1717.63" y="-85.8" font-family="Times,serif" font-size="14.00">uploader</text>
</g>
<!-- root&#45;&gt;uploader -->
<g id="edge18" class="edge">
<title>root&#45;&gt;uploader</title>
<path fill="none" stroke="black" d="M846.62,-160.19C972.34,-156.25 1501.25,-138.2 1663.63,-108 1667.54,-107.27 1671.57,-106.35 1675.57,-105.31"/>
<polygon fill="black" stroke="black" points="1676.73,-108.62 1685.4,-102.54 1674.83,-101.89 1676.73,-108.62"/>
</g>
<!-- yandex_map -->
<g id="node19" class="node">
<title>yandex_map</title>
<ellipse fill="none" stroke="black" cx="1840.63" cy="-90" rx="60.26" ry="18"/>
<text text-anchor="middle" x="1840.63" y="-85.8" font-family="Times,serif" font-size="14.00">yandex_map</text>
</g>
<!-- root&#45;&gt;yandex_map -->
<g id="edge20" class="edge">
<title>root&#45;&gt;yandex_map</title>
<path fill="none" stroke="black" d="M846.7,-161.33C960.19,-162.31 1408.61,-162.34 1771.63,-108 1776.97,-107.2 1782.5,-106.18 1788,-105.03"/>
<polygon fill="black" stroke="black" points="1788.81,-108.44 1797.82,-102.86 1787.3,-101.6 1788.81,-108.44"/>
</g>
</g>
</svg>
