<svg width="833px" height="116px"
 viewBox="0.00 0.00 833.23 116.00" xmlns="http://www.w3.org/2000/svg" xmlns:xlink="http://www.w3.org/1999/xlink">
<g id="graph0" class="graph" transform="scale(1.0 1.0) rotate(0.0) translate(4.0 112.0)">
<polygon fill="white" stroke="transparent" points="-4,4 -4,-112 829.23,-112 829.23,4 -4,4"/>
<!-- root -->
<g id="node1" class="node">
<title>root</title>
<ellipse fill="none" stroke="black" cx="445.74" cy="-90" rx="27" ry="18"/>
<text text-anchor="middle" x="445.74" y="-85.8" font-family="Times,serif" font-size="14.00">root</text>
</g>
<!-- calendar -->
<g id="node2" class="node">
<title>calendar</title>
<ellipse fill="none" stroke="black" cx="43.74" cy="-18" rx="43.98" ry="18"/>
<text text-anchor="middle" x="43.74" y="-13.8" font-family="Times,serif" font-size="14.00">calendar</text>
</g>
<!-- root&#45;&gt;calendar -->
<g id="edge1" class="edge">
<title>root&#45;&gt;calendar</title>
<path fill="none" stroke="black" d="M419.2,-86.43C360.5,-80.44 215.47,-63.87 96.74,-36 93.14,-35.16 89.43,-34.18 85.73,-33.14"/>
<polygon fill="black" stroke="black" points="86.61,-29.75 76.02,-30.26 84.61,-36.46 86.61,-29.75"/>
</g>
<!-- charts -->
<g id="node3" class="node">
<title>charts</title>
<ellipse fill="none" stroke="black" cx="139.74" cy="-18" rx="34.19" ry="18"/>
<text text-anchor="middle" x="139.74" y="-13.8" font-family="Times,serif" font-size="14.00">charts</text>
</g>
<!-- root&#45;&gt;charts -->
<g id="edge2" class="edge">
<title>root&#45;&gt;charts</title>
<path fill="none" stroke="black" d="M419.61,-85.31C371.91,-78.23 267.82,-61.17 182.74,-36 180.16,-35.24 177.51,-34.38 174.87,-33.47"/>
<polygon fill="black" stroke="black" points="175.99,-30.16 165.4,-30 173.59,-36.73 175.99,-30.16"/>
</g>
<!-- collapsing_toolbar -->
<g id="node4" class="node">
<title>collapsing_toolbar</title>
<ellipse fill="none" stroke="black" cx="274.74" cy="-18" rx="82.83" ry="18"/>
<text text-anchor="middle" x="274.74" y="-13.8" font-family="Times,serif" font-size="14.00">collapsing_toolbar</text>
</g>
<!-- root&#45;&gt;collapsing_toolbar -->
<g id="edge3" class="edge">
<title>root&#45;&gt;collapsing_toolbar</title>
<path fill="none" stroke="black" d="M423.38,-79.85C397.59,-69.29 354.48,-51.64 321.31,-38.07"/>
<polygon fill="black" stroke="black" points="322.39,-34.72 311.81,-34.17 319.74,-41.2 322.39,-34.72"/>
</g>
<!-- form -->
<g id="node5" class="node">
<title>form</title>
<ellipse fill="none" stroke="black" cx="405.74" cy="-18" rx="29.61" ry="18"/>
<text text-anchor="middle" x="405.74" y="-13.8" font-family="Times,serif" font-size="14.00">form</text>
</g>
<!-- root&#45;&gt;form -->
<g id="edge4" class="edge">
<title>root&#45;&gt;form</title>
<path fill="none" stroke="black" d="M436.46,-72.76C431.56,-64.19 425.45,-53.49 419.97,-43.9"/>
<polygon fill="black" stroke="black" points="422.97,-42.09 414.97,-35.15 416.89,-45.57 422.97,-42.09"/>
</g>
<!-- menu -->
<g id="node6" class="node">
<title>menu</title>
<ellipse fill="none" stroke="black" cx="485.74" cy="-18" rx="32.48" ry="18"/>
<text text-anchor="middle" x="485.74" y="-13.8" font-family="Times,serif" font-size="14.00">menu</text>
</g>
<!-- root&#45;&gt;menu -->
<g id="edge5" class="edge">
<title>root&#45;&gt;menu</title>
<path fill="none" stroke="black" d="M455.02,-72.76C459.79,-64.4 465.73,-54.02 471.11,-44.61"/>
<polygon fill="black" stroke="black" points="474.31,-46.05 476.23,-35.63 468.23,-42.58 474.31,-46.05"/>
</g>
<!-- navigation -->
<g id="node7" class="node">
<title>navigation</title>
<ellipse fill="none" stroke="black" cx="587.74" cy="-18" rx="51.61" ry="18"/>
<text text-anchor="middle" x="587.74" y="-13.8" font-family="Times,serif" font-size="14.00">navigation</text>
</g>
<!-- root&#45;&gt;navigation -->
<g id="edge6" class="edge">
<title>root&#45;&gt;navigation</title>
<path fill="none" stroke="black" d="M467,-78.52C488.94,-67.71 523.61,-50.61 550.18,-37.51"/>
<polygon fill="black" stroke="black" points="551.79,-40.62 559.21,-33.06 548.69,-34.35 551.79,-40.62"/>
</g>
<!-- qr_code -->
<g id="node8" class="node">
<title>qr_code</title>
<ellipse fill="none" stroke="black" cx="699.74" cy="-18" rx="42.28" ry="18"/>
<text text-anchor="middle" x="699.74" y="-13.8" font-family="Times,serif" font-size="14.00">qr_code</text>
</g>
<!-- root&#45;&gt;qr_code -->
<g id="edge7" class="edge">
<title>root&#45;&gt;qr_code</title>
<path fill="none" stroke="black" d="M470.89,-83C509.4,-73.69 585.19,-54.87 648.74,-36 651.87,-35.07 655.1,-34.08 658.34,-33.06"/>
<polygon fill="black" stroke="black" points="659.57,-36.34 668.01,-29.94 657.42,-29.67 659.57,-36.34"/>
</g>
<!-- video -->
<g id="node9" class="node">
<title>video</title>
<ellipse fill="none" stroke="black" cx="792.74" cy="-18" rx="32.48" ry="18"/>
<text text-anchor="middle" x="792.74" y="-13.8" font-family="Times,serif" font-size="14.00">video</text>
</g>
<!-- root&#45;&gt;video -->
<g id="edge8" class="edge">
<title>root&#45;&gt;video</title>
<path fill="none" stroke="black" d="M472.27,-86.31C525.75,-80.47 649.97,-64.79 750.74,-36 753.34,-35.26 756.01,-34.4 758.67,-33.49"/>
<polygon fill="black" stroke="black" points="760.02,-36.72 768.17,-29.96 757.58,-30.16 760.02,-36.72"/>
</g>
</g>
</svg>
